<?xml version="1.0" encoding="UTF-8" standalone="no"?>
<!-- translate-xy="150,138" -->
<svg
   xmlns:dc="http://purl.org/dc/elements/1.1/"
   xmlns:cc="http://creativecommons.org/ns#"
   xmlns:rdf="http://www.w3.org/1999/02/22-rdf-syntax-ns#"
   xmlns:svg="http://www.w3.org/2000/svg"
   xmlns="http://www.w3.org/2000/svg"
   xmlns:sodipodi="http://sodipodi.sourceforge.net/DTD/sodipodi-0.dtd"
   xmlns:inkscape="http://www.inkscape.org/namespaces/inkscape"
   width="300"
   height="300"
   viewBox="0 0 300 300"
   version="1.1"
   id="svg8"
   sodipodi:docname="misc-double-lines-000000.svg"
   inkscape:version="1.0.1 (3bc2e813f5, 2020-09-07)">
  <metadata
     id="metadata14">
    <rdf:RDF>
      <cc:Work
         rdf:about="">
        <dc:format>image/svg+xml</dc:format>
        <dc:type
           rdf:resource="http://purl.org/dc/dcmitype/StillImage" />
        <dc:title></dc:title>
      </cc:Work>
    </rdf:RDF>
  </metadata>
  <defs
     id="defs12" />
  <sodipodi:namedview
     pagecolor="#ffffff"
     bordercolor="#666666"
     borderopacity="1"
     objecttolerance="10"
     gridtolerance="10"
     guidetolerance="10"
     inkscape:pageopacity="0"
     inkscape:pageshadow="2"
     inkscape:window-width="1366"
     inkscape:window-height="705"
     id="namedview10"
     showgrid="false"
     inkscape:zoom="1.5733333"
     inkscape:cx="186.6431"
     inkscape:cy="160.8943"
     inkscape:window-x="-8"
     inkscape:window-y="-8"
     inkscape:window-maximized="1"
     inkscape:current-layer="svg8"
     inkscape:showpageshadow="false"
     inkscape:document-rotation="0" />
  <circle
     style="fill:none;stroke:#000000;stroke-width:1.49843;stroke-miterlimit:4;stroke-dasharray:none;stroke-opacity:1"
     id="circle814"
     r="102.25079"
     cy="150"
     cx="150" />
  <circle
     cx="150"
     cy="150"
     r="97.240692"
     id="circle816"
     style="fill:none;stroke:#000000;stroke-width:1.51862;stroke-miterlimit:4;stroke-dasharray:none;stroke-opacity:1" />
<g transform="translate(135, 283.5) rotate(-170) "> <g
     aria-label="P"
     transform="scale(0.95692948,1.0450091)"
     style="font-style:normal;font-weight:normal;font-size:10.33177853px;line-height:1.25;font-family:sans-serif;letter-spacing:0px;word-spacing:0px;fill:#000000;fill-opacity:1;stroke:none;stroke-width:0.2582944"
     id="text826">
    <path
       d="m 4.6813621,15.358878 h 4.0622774 c 1.2181697,-0.01059 2.3251155,-0.190671 3.3208375,-0.540232 0.995721,-0.349562 1.853737,-0.83683 2.574046,-1.461804 0.709716,-0.624974 1.260541,-1.371765 1.652474,-2.240373 0.391933,-0.879201 0.587899,-1.8484408 0.587899,-2.9077191 0,-1.1122421 -0.195966,-2.1185564 -0.587899,-3.0189429 C 15.899064,4.2894205 15.348239,3.5214438 14.638523,2.8858769 13.918214,2.25031 13.060198,1.7577456 12.064477,1.4081837 11.068755,1.0480291 9.9618092,0.86795184 8.7436395,0.86795184 H 0.92616623 V 24.002588 H 4.6813621 Z m 0,-3.384394 V 4.2364566 h 4.0622774 c 0.6461597,0 1.2128736,0.1059278 1.7001415,0.3177835 0.497861,0.2012629 0.916276,0.4819716 1.255245,0.8421262 0.328376,0.3495618 0.577306,0.7679767 0.746791,1.2552446 0.169485,0.487268 0.254227,1.0169071 0.254227,1.5889174 0,0.5190463 -0.08474,1.0063143 -0.254227,1.4618039 -0.169485,0.4554898 -0.423711,0.8527188 -0.76268,1.1916878 -0.338969,0.338969 -0.752088,0.603789 -1.239356,0.794459 -0.4872679,0.19067 -1.0539818,0.286005 -1.7001415,0.286005 z"
       style="font-style:normal;font-variant:normal;font-weight:bold;font-stretch:normal;font-size:32.54102707px;font-family:'Roboto Mono';-inkscape-font-specification:'Roboto Mono Bold';fill:#000000;fill-opacity:1;stroke-width:0.2582944"
       id="path815"
       inkscape:connector-curvature="0"
       sodipodi:nodetypes="ccsccssccsccccccsccssssssc" />
  </g>

 </g><g transform="translate(112, 279.1) rotate(-160) "> <g
     aria-label="O"
     transform="scale(0.94275316,1.060723)"
     style="font-style:normal;font-weight:normal;font-size:9.94822502px;line-height:1.25;font-family:sans-serif;letter-spacing:0px;word-spacing:0px;fill:#000000;fill-opacity:1;stroke:none;stroke-width:0.24870555"
     id="text826">
    <path
       d="m 17.171996,13.841038 v -3.09046 Q 17.156697,9.2971433 16.896608,7.9814027 16.63652,6.6656621 16.131643,5.5335133 15.657364,4.5084596 14.984195,3.6516982 14.311025,2.7796376 13.423665,2.1676653 12.536305,1.5403936 11.404156,1.1885095 10.287307,0.83662538 8.9868655,0.83662538 q -1.3004413,0 -2.3866922,0.35188412 Q 5.5139223,1.5250943 4.6418617,2.152366 3.7545018,2.7949369 3.0813322,3.6822969 2.4234619,4.5543575 1.9644827,5.6253091 1.4902041,6.7421587 1.2454151,8.0425999 1.0159255,9.3430412 1.0006262,10.750578 v 3.09046 q 0.015299,1.346339 0.2294896,2.585583 0.2141903,1.223945 0.642571,2.294897 0.4589793,1.147448 1.1474482,2.080706 0.6884689,0.917958 1.5605295,1.575829 0.9026592,0.64257 2.0042095,0.994455 1.1015502,0.351884 2.4172908,0.351884 1.2545432,0 2.3254952,-0.321286 1.070951,-0.321285 1.958311,-0.902659 0.948558,-0.642571 1.682924,-1.56053 0.734367,-0.933257 1.223945,-2.050107 0.474279,-1.10155 0.719068,-2.371393 0.244789,-1.285142 0.260088,-2.677379 z m -4.039018,-3.121059 v 3.121059 q 0,0.826163 -0.0918,1.621727 -0.0765,0.780265 -0.260088,1.453434 -0.21419,0.841462 -0.581374,1.514632 -0.351884,0.673169 -0.87206,1.132149 -0.44368,0.413081 -1.025054,0.627271 -0.5813737,0.214191 -1.3004412,0.214191 -0.7496661,0 -1.3310399,-0.22949 Q 7.1050505,19.945462 6.6766698,19.532381 6.2023913,19.088701 5.8658065,18.400232 5.5292217,17.696464 5.3456299,16.885601 5.1773375,16.197132 5.100841,15.432166 5.0396438,14.651901 5.0396438,13.841038 v -3.121059 q 0,-0.841462 0.076496,-1.637026 Q 5.1926369,8.2873889 5.3609293,7.5836207 5.5598203,6.7268594 5.9117044,6.0536898 6.2788878,5.3805202 6.8143636,4.9215409 7.227445,4.5696568 7.7629208,4.3860651 q 0.5354758,-0.198891 1.2239447,-0.198891 0.7037682,0 1.2545435,0.2141903 0.566074,0.198891 1.009754,0.5507751 0.535476,0.4589793 0.902659,1.1321489 0.382483,0.6731696 0.611973,1.4993323 0.198891,0.7037682 0.275387,1.4993323 0.0918,0.795564 0.0918,1.637026 z"
       style="font-style:normal;font-variant:normal;font-weight:bold;font-stretch:normal;font-size:31.33298492px;font-family:'Roboto Mono';-inkscape-font-specification:'Roboto Mono Bold';fill:#000000;fill-opacity:1;stroke-width:0.24870555"
       id="path815" />
  </g>

 </g><g transform="translate(90.8, 270.8) rotate(-150) "> <g
     aria-label="R"
     transform="scale(0.94374805,1.0596048)"
     style="font-style:normal;font-weight:normal;font-size:10.18946171px;line-height:1.25;font-family:sans-serif;letter-spacing:0px;word-spacing:0px;fill:#000000;fill-opacity:1;stroke:none;stroke-width:0.25473648"
     id="text826">
    <path
       d="m 8.6500265,14.990609 4.3250045,8.68135 h 4.372016 v -0.203714 l -4.889136,-9.480536 q 0.940219,-0.423098 1.692393,-1.002899 0.767845,-0.579802 1.331976,-1.363317 0.532791,-0.752175 0.830527,-1.7237339 0.297735,-0.971559 0.297735,-2.1625024 0,-1.7080634 -0.595471,-2.9930286 Q 15.435269,3.4572629 14.354018,2.6110663 13.257097,1.7491995 11.752747,1.3104309 10.248398,0.85599196 8.4149719,0.85599196 H 0.95590577 V 23.671959 H 5.0458559 v -8.68135 z M 5.0458559,11.652833 V 4.178097 h 3.369116 q 0.9402184,0 1.6767231,0.2350546 0.736504,0.2350546 1.269295,0.6738232 0.564131,0.4701093 0.846196,1.2066137 0.297736,0.7208341 0.297736,1.6610525 0,0.814856 -0.250725,1.4730089 -0.235054,0.6424821 -0.689493,1.0969211 -0.532791,0.548461 -1.331976,0.846197 -0.7835158,0.282065 -1.7864155,0.282065 z"
       style="font-style:normal;font-variant:normal;font-weight:bold;font-stretch:normal;font-size:32.0927887px;font-family:'Roboto Mono';-inkscape-font-specification:'Roboto Mono Bold';fill:#000000;fill-opacity:1;stroke-width:0.25473648"
       id="path815" />
  </g>

 </g><g transform="translate(70, 258) rotate(-140) "> <g
     aria-label="T"
     transform="scale(0.8981495,1.1134004)"
     style="font-style:normal;font-weight:normal;font-size:9.69714355px;line-height:1.25;font-family:sans-serif;letter-spacing:0px;word-spacing:0px;fill:#000000;fill-opacity:1;stroke:none;stroke-width:0.24242853"
     id="text826">
    <path
       d="M 18.02607,4.0060552 V 0.8146363 H 0.80135575 V 4.0060552 H 7.4377175 V 22.528215 H 11.315142 V 4.0060552 Z"
       style="font-style:normal;font-variant:normal;font-weight:bold;font-stretch:normal;font-size:30.5421772px;font-family:'Roboto Mono';-inkscape-font-specification:'Roboto Mono Bold';fill:#000000;fill-opacity:1;stroke-width:0.24242853"
       id="path815" />
  </g>

 </g><g transform="translate(53.1, 242.9) rotate(-130) "> <g
     aria-label="F"
     transform="scale(0.97087718,1.0299964)"
     style="font-style:normal;font-weight:normal;font-size:10.48236942px;line-height:1.25;font-family:sans-serif;letter-spacing:0px;word-spacing:0px;fill:#000000;fill-opacity:1;stroke:none;stroke-width:0.26205918"
     id="text826">
    <path
       d="M 15.131378,14.502647 V 11.068924 H 5.1365021 V 4.3304432 H 16.469401 V 0.88059899 H 0.9128611 V 24.352436 h 4.223641 v -9.849789 z"
       style="font-style:normal;font-variant:normal;font-weight:bold;font-stretch:normal;font-size:33.01533127px;font-family:'Roboto Mono';-inkscape-font-specification:'Roboto Mono Bold';fill:#000000;fill-opacity:1;stroke-width:0.26205918"
       id="path815" />
  </g>

 </g><g transform="translate(38.2, 224.6) rotate(-120) "> <g
     aria-label="O"
     transform="scale(0.94275316,1.060723)"
     style="font-style:normal;font-weight:normal;font-size:9.94822502px;line-height:1.25;font-family:sans-serif;letter-spacing:0px;word-spacing:0px;fill:#000000;fill-opacity:1;stroke:none;stroke-width:0.24870555"
     id="text826">
    <path
       d="m 17.171996,13.841038 v -3.09046 Q 17.156697,9.2971433 16.896608,7.9814027 16.63652,6.6656621 16.131643,5.5335133 15.657364,4.5084596 14.984195,3.6516982 14.311025,2.7796376 13.423665,2.1676653 12.536305,1.5403936 11.404156,1.1885095 10.287307,0.83662538 8.9868655,0.83662538 q -1.3004413,0 -2.3866922,0.35188412 Q 5.5139223,1.5250943 4.6418617,2.152366 3.7545018,2.7949369 3.0813322,3.6822969 2.4234619,4.5543575 1.9644827,5.6253091 1.4902041,6.7421587 1.2454151,8.0425999 1.0159255,9.3430412 1.0006262,10.750578 v 3.09046 q 0.015299,1.346339 0.2294896,2.585583 0.2141903,1.223945 0.642571,2.294897 0.4589793,1.147448 1.1474482,2.080706 0.6884689,0.917958 1.5605295,1.575829 0.9026592,0.64257 2.0042095,0.994455 1.1015502,0.351884 2.4172908,0.351884 1.2545432,0 2.3254952,-0.321286 1.070951,-0.321285 1.958311,-0.902659 0.948558,-0.642571 1.682924,-1.56053 0.734367,-0.933257 1.223945,-2.050107 0.474279,-1.10155 0.719068,-2.371393 0.244789,-1.285142 0.260088,-2.677379 z m -4.039018,-3.121059 v 3.121059 q 0,0.826163 -0.0918,1.621727 -0.0765,0.780265 -0.260088,1.453434 -0.21419,0.841462 -0.581374,1.514632 -0.351884,0.673169 -0.87206,1.132149 -0.44368,0.413081 -1.025054,0.627271 -0.5813737,0.214191 -1.3004412,0.214191 -0.7496661,0 -1.3310399,-0.22949 Q 7.1050505,19.945462 6.6766698,19.532381 6.2023913,19.088701 5.8658065,18.400232 5.5292217,17.696464 5.3456299,16.885601 5.1773375,16.197132 5.100841,15.432166 5.0396438,14.651901 5.0396438,13.841038 v -3.121059 q 0,-0.841462 0.076496,-1.637026 Q 5.1926369,8.2873889 5.3609293,7.5836207 5.5598203,6.7268594 5.9117044,6.0536898 6.2788878,5.3805202 6.8143636,4.9215409 7.227445,4.5696568 7.7629208,4.3860651 q 0.5354758,-0.198891 1.2239447,-0.198891 0.7037682,0 1.2545435,0.2141903 0.566074,0.198891 1.009754,0.5507751 0.535476,0.4589793 0.902659,1.1321489 0.382483,0.6731696 0.611973,1.4993323 0.198891,0.7037682 0.275387,1.4993323 0.0918,0.795564 0.0918,1.637026 z"
       style="font-style:normal;font-variant:normal;font-weight:bold;font-stretch:normal;font-size:31.33298492px;font-family:'Roboto Mono';-inkscape-font-specification:'Roboto Mono Bold';fill:#000000;fill-opacity:1;stroke-width:0.24870555"
       id="path815" />
  </g>

 </g><g transform="translate(27.1, 204.5) rotate(-110) "> <g
     aria-label="L"
     transform="scale(0.97991699,1.0204946)"
     style="font-style:normal;font-weight:normal;font-size:10.57997036px;line-height:1.25;font-family:sans-serif;letter-spacing:0px;word-spacing:0px;fill:#000000;fill-opacity:1;stroke:none;stroke-width:0.26449919"
     id="text826">
    <path
       d="M 5.1955173,21.129758 V 0.88879988 H 0.93255025 V 24.579182 H 16.389874 v -3.449424 z"
       style="font-style:normal;font-variant:normal;font-weight:bold;font-stretch:normal;font-size:33.32273483px;font-family:'Roboto Mono';-inkscape-font-specification:'Roboto Mono Bold';fill:#000000;fill-opacity:1;stroke-width:0.26449919"
       id="path815" />
  </g>

 </g><g transform="translate(19.5, 181.8) rotate(-100) "> <g
     aria-label="I"
     transform="scale(1.0380132,0.96337888)"
     style="font-style:normal;font-weight:normal;font-size:11.20722389px;line-height:1.25;font-family:sans-serif;letter-spacing:0px;word-spacing:0px;fill:#000000;fill-opacity:1;stroke:none;stroke-width:0.28018054"
     id="text826">
    <path
       d="M 0.84366954,0.94149479 V 4.6126596 H 5.9623915 V 22.382476 H 0.84366954 v 3.65393 H 15.493858 v -3.65393 H 10.237252 V 4.6126596 h 5.256606 V 0.94149479 Z"
       style="font-style:normal;font-variant:normal;font-weight:bold;font-stretch:normal;font-size:35.29833603px;font-family:'Roboto Mono';-inkscape-font-specification:'Roboto Mono Bold';fill:#000000;fill-opacity:1;stroke-width:0.28018054"
       id="path815"
       inkscape:connector-curvature="0"
       sodipodi:nodetypes="ccccccccccccc" />
  </g>

 </g><g transform="translate(16, 157.9) rotate(-90) "> <g
     aria-label="O"
     transform="scale(0.94275316,1.060723)"
     style="font-style:normal;font-weight:normal;font-size:9.94822502px;line-height:1.25;font-family:sans-serif;letter-spacing:0px;word-spacing:0px;fill:#000000;fill-opacity:1;stroke:none;stroke-width:0.24870555"
     id="text826">
    <path
       d="m 17.171996,13.841038 v -3.09046 Q 17.156697,9.2971433 16.896608,7.9814027 16.63652,6.6656621 16.131643,5.5335133 15.657364,4.5084596 14.984195,3.6516982 14.311025,2.7796376 13.423665,2.1676653 12.536305,1.5403936 11.404156,1.1885095 10.287307,0.83662538 8.9868655,0.83662538 q -1.3004413,0 -2.3866922,0.35188412 Q 5.5139223,1.5250943 4.6418617,2.152366 3.7545018,2.7949369 3.0813322,3.6822969 2.4234619,4.5543575 1.9644827,5.6253091 1.4902041,6.7421587 1.2454151,8.0425999 1.0159255,9.3430412 1.0006262,10.750578 v 3.09046 q 0.015299,1.346339 0.2294896,2.585583 0.2141903,1.223945 0.642571,2.294897 0.4589793,1.147448 1.1474482,2.080706 0.6884689,0.917958 1.5605295,1.575829 0.9026592,0.64257 2.0042095,0.994455 1.1015502,0.351884 2.4172908,0.351884 1.2545432,0 2.3254952,-0.321286 1.070951,-0.321285 1.958311,-0.902659 0.948558,-0.642571 1.682924,-1.56053 0.734367,-0.933257 1.223945,-2.050107 0.474279,-1.10155 0.719068,-2.371393 0.244789,-1.285142 0.260088,-2.677379 z m -4.039018,-3.121059 v 3.121059 q 0,0.826163 -0.0918,1.621727 -0.0765,0.780265 -0.260088,1.453434 -0.21419,0.841462 -0.581374,1.514632 -0.351884,0.673169 -0.87206,1.132149 -0.44368,0.413081 -1.025054,0.627271 -0.5813737,0.214191 -1.3004412,0.214191 -0.7496661,0 -1.3310399,-0.22949 Q 7.1050505,19.945462 6.6766698,19.532381 6.2023913,19.088701 5.8658065,18.400232 5.5292217,17.696464 5.3456299,16.885601 5.1773375,16.197132 5.100841,15.432166 5.0396438,14.651901 5.0396438,13.841038 v -3.121059 q 0,-0.841462 0.076496,-1.637026 Q 5.1926369,8.2873889 5.3609293,7.5836207 5.5598203,6.7268594 5.9117044,6.0536898 6.2788878,5.3805202 6.8143636,4.9215409 7.227445,4.5696568 7.7629208,4.3860651 q 0.5354758,-0.198891 1.2239447,-0.198891 0.7037682,0 1.2545435,0.2141903 0.566074,0.198891 1.009754,0.5507751 0.535476,0.4589793 0.902659,1.1321489 0.382483,0.6731696 0.611973,1.4993323 0.198891,0.7037682 0.275387,1.4993323 0.0918,0.795564 0.0918,1.637026 z"
       style="font-style:normal;font-variant:normal;font-weight:bold;font-stretch:normal;font-size:31.33298492px;font-family:'Roboto Mono';-inkscape-font-specification:'Roboto Mono Bold';fill:#000000;fill-opacity:1;stroke-width:0.24870555"
       id="path815" />
  </g>

 </g><g transform="translate(16.7, 135.2) rotate(-80) "> <g
     aria-label="-"
     transform="scale(0.91076074,1.0979832)"
     style="font-style:normal;font-weight:normal;font-size:9.83330441px;line-height:1.25;font-family:sans-serif;letter-spacing:0px;word-spacing:0px;fill:#000000;fill-opacity:1;stroke:none;stroke-width:0.24583255"
     id="text826">
    <path
       d="M 15.365107,14.723719 V 11.563101 H 2.9948415 v 3.160618 z"
       style="font-style:normal;font-variant:normal;font-weight:bold;font-stretch:normal;font-size:30.97103119px;font-family:'Roboto Mono';-inkscape-font-specification:'Roboto Mono Bold';fill:#000000;fill-opacity:1;stroke-width:0.24583255"
       id="path815" />
  </g>

 </g><g transform="translate(21, 112.2) rotate(-70) "> <g
     aria-label="P"
     transform="scale(0.95692948,1.0450091)"
     style="font-style:normal;font-weight:normal;font-size:10.33177853px;line-height:1.25;font-family:sans-serif;letter-spacing:0px;word-spacing:0px;fill:#000000;fill-opacity:1;stroke:none;stroke-width:0.2582944"
     id="text826">
    <path
       d="m 4.6813621,15.358878 h 4.0622774 c 1.2181697,-0.01059 2.3251155,-0.190671 3.3208375,-0.540232 0.995721,-0.349562 1.853737,-0.83683 2.574046,-1.461804 0.709716,-0.624974 1.260541,-1.371765 1.652474,-2.240373 0.391933,-0.879201 0.587899,-1.8484408 0.587899,-2.9077191 0,-1.1122421 -0.195966,-2.1185564 -0.587899,-3.0189429 C 15.899064,4.2894205 15.348239,3.5214438 14.638523,2.8858769 13.918214,2.25031 13.060198,1.7577456 12.064477,1.4081837 11.068755,1.0480291 9.9618092,0.86795184 8.7436395,0.86795184 H 0.92616623 V 24.002588 H 4.6813621 Z m 0,-3.384394 V 4.2364566 h 4.0622774 c 0.6461597,0 1.2128736,0.1059278 1.7001415,0.3177835 0.497861,0.2012629 0.916276,0.4819716 1.255245,0.8421262 0.328376,0.3495618 0.577306,0.7679767 0.746791,1.2552446 0.169485,0.487268 0.254227,1.0169071 0.254227,1.5889174 0,0.5190463 -0.08474,1.0063143 -0.254227,1.4618039 -0.169485,0.4554898 -0.423711,0.8527188 -0.76268,1.1916878 -0.338969,0.338969 -0.752088,0.603789 -1.239356,0.794459 -0.4872679,0.19067 -1.0539818,0.286005 -1.7001415,0.286005 z"
       style="font-style:normal;font-variant:normal;font-weight:bold;font-stretch:normal;font-size:32.54102707px;font-family:'Roboto Mono';-inkscape-font-specification:'Roboto Mono Bold';fill:#000000;fill-opacity:1;stroke-width:0.2582944"
       id="path815"
       inkscape:connector-curvature="0"
       sodipodi:nodetypes="ccsccssccsccccccsccssssssc" />
  </g>

 </g><g transform="translate(29.5, 90.3) rotate(-60) "> <g
     aria-label="O"
     transform="scale(0.94275316,1.060723)"
     style="font-style:normal;font-weight:normal;font-size:9.94822502px;line-height:1.25;font-family:sans-serif;letter-spacing:0px;word-spacing:0px;fill:#000000;fill-opacity:1;stroke:none;stroke-width:0.24870555"
     id="text826">
    <path
       d="m 17.171996,13.841038 v -3.09046 Q 17.156697,9.2971433 16.896608,7.9814027 16.63652,6.6656621 16.131643,5.5335133 15.657364,4.5084596 14.984195,3.6516982 14.311025,2.7796376 13.423665,2.1676653 12.536305,1.5403936 11.404156,1.1885095 10.287307,0.83662538 8.9868655,0.83662538 q -1.3004413,0 -2.3866922,0.35188412 Q 5.5139223,1.5250943 4.6418617,2.152366 3.7545018,2.7949369 3.0813322,3.6822969 2.4234619,4.5543575 1.9644827,5.6253091 1.4902041,6.7421587 1.2454151,8.0425999 1.0159255,9.3430412 1.0006262,10.750578 v 3.09046 q 0.015299,1.346339 0.2294896,2.585583 0.2141903,1.223945 0.642571,2.294897 0.4589793,1.147448 1.1474482,2.080706 0.6884689,0.917958 1.5605295,1.575829 0.9026592,0.64257 2.0042095,0.994455 1.1015502,0.351884 2.4172908,0.351884 1.2545432,0 2.3254952,-0.321286 1.070951,-0.321285 1.958311,-0.902659 0.948558,-0.642571 1.682924,-1.56053 0.734367,-0.933257 1.223945,-2.050107 0.474279,-1.10155 0.719068,-2.371393 0.244789,-1.285142 0.260088,-2.677379 z m -4.039018,-3.121059 v 3.121059 q 0,0.826163 -0.0918,1.621727 -0.0765,0.780265 -0.260088,1.453434 -0.21419,0.841462 -0.581374,1.514632 -0.351884,0.673169 -0.87206,1.132149 -0.44368,0.413081 -1.025054,0.627271 -0.5813737,0.214191 -1.3004412,0.214191 -0.7496661,0 -1.3310399,-0.22949 Q 7.1050505,19.945462 6.6766698,19.532381 6.2023913,19.088701 5.8658065,18.400232 5.5292217,17.696464 5.3456299,16.885601 5.1773375,16.197132 5.100841,15.432166 5.0396438,14.651901 5.0396438,13.841038 v -3.121059 q 0,-0.841462 0.076496,-1.637026 Q 5.1926369,8.2873889 5.3609293,7.5836207 5.5598203,6.7268594 5.9117044,6.0536898 6.2788878,5.3805202 6.8143636,4.9215409 7.227445,4.5696568 7.7629208,4.3860651 q 0.5354758,-0.198891 1.2239447,-0.198891 0.7037682,0 1.2545435,0.2141903 0.566074,0.198891 1.009754,0.5507751 0.535476,0.4589793 0.902659,1.1321489 0.382483,0.6731696 0.611973,1.4993323 0.198891,0.7037682 0.275387,1.4993323 0.0918,0.795564 0.0918,1.637026 z"
       style="font-style:normal;font-variant:normal;font-weight:bold;font-stretch:normal;font-size:31.33298492px;font-family:'Roboto Mono';-inkscape-font-specification:'Roboto Mono Bold';fill:#000000;fill-opacity:1;stroke-width:0.24870555"
       id="path815" />
  </g>

 </g><g transform="translate(41.6, 70.3) rotate(-50) "> <g
     aria-label="R"
     transform="scale(0.94374805,1.0596048)"
     style="font-style:normal;font-weight:normal;font-size:10.18946171px;line-height:1.25;font-family:sans-serif;letter-spacing:0px;word-spacing:0px;fill:#000000;fill-opacity:1;stroke:none;stroke-width:0.25473648"
     id="text826">
    <path
       d="m 8.6500265,14.990609 4.3250045,8.68135 h 4.372016 v -0.203714 l -4.889136,-9.480536 q 0.940219,-0.423098 1.692393,-1.002899 0.767845,-0.579802 1.331976,-1.363317 0.532791,-0.752175 0.830527,-1.7237339 0.297735,-0.971559 0.297735,-2.1625024 0,-1.7080634 -0.595471,-2.9930286 Q 15.435269,3.4572629 14.354018,2.6110663 13.257097,1.7491995 11.752747,1.3104309 10.248398,0.85599196 8.4149719,0.85599196 H 0.95590577 V 23.671959 H 5.0458559 v -8.68135 z M 5.0458559,11.652833 V 4.178097 h 3.369116 q 0.9402184,0 1.6767231,0.2350546 0.736504,0.2350546 1.269295,0.6738232 0.564131,0.4701093 0.846196,1.2066137 0.297736,0.7208341 0.297736,1.6610525 0,0.814856 -0.250725,1.4730089 -0.235054,0.6424821 -0.689493,1.0969211 -0.532791,0.548461 -1.331976,0.846197 -0.7835158,0.282065 -1.7864155,0.282065 z"
       style="font-style:normal;font-variant:normal;font-weight:bold;font-stretch:normal;font-size:32.0927887px;font-family:'Roboto Mono';-inkscape-font-specification:'Roboto Mono Bold';fill:#000000;fill-opacity:1;stroke-width:0.25473648"
       id="path815" />
  </g>

 </g><g transform="translate(57.3, 52.8) rotate(-40) "> <g
     aria-label="T"
     transform="scale(0.8981495,1.1134004)"
     style="font-style:normal;font-weight:normal;font-size:9.69714355px;line-height:1.25;font-family:sans-serif;letter-spacing:0px;word-spacing:0px;fill:#000000;fill-opacity:1;stroke:none;stroke-width:0.24242853"
     id="text826">
    <path
       d="M 18.02607,4.0060552 V 0.8146363 H 0.80135575 V 4.0060552 H 7.4377175 V 22.528215 H 11.315142 V 4.0060552 Z"
       style="font-style:normal;font-variant:normal;font-weight:bold;font-stretch:normal;font-size:30.5421772px;font-family:'Roboto Mono';-inkscape-font-specification:'Roboto Mono Bold';fill:#000000;fill-opacity:1;stroke-width:0.24242853"
       id="path815" />
  </g>

 </g><g transform="translate(75.4, 38.4) rotate(-30) "> <g
     aria-label="F"
     transform="scale(0.97087718,1.0299964)"
     style="font-style:normal;font-weight:normal;font-size:10.48236942px;line-height:1.25;font-family:sans-serif;letter-spacing:0px;word-spacing:0px;fill:#000000;fill-opacity:1;stroke:none;stroke-width:0.26205918"
     id="text826">
    <path
       d="M 15.131378,14.502647 V 11.068924 H 5.1365021 V 4.3304432 H 16.469401 V 0.88059899 H 0.9128611 V 24.352436 h 4.223641 v -9.849789 z"
       style="font-style:normal;font-variant:normal;font-weight:bold;font-stretch:normal;font-size:33.01533127px;font-family:'Roboto Mono';-inkscape-font-specification:'Roboto Mono Bold';fill:#000000;fill-opacity:1;stroke-width:0.26205918"
       id="path815" />
  </g>

 </g><g transform="translate(96.3, 27) rotate(-20) "> <g
     aria-label="O"
     transform="scale(0.94275316,1.060723)"
     style="font-style:normal;font-weight:normal;font-size:9.94822502px;line-height:1.25;font-family:sans-serif;letter-spacing:0px;word-spacing:0px;fill:#000000;fill-opacity:1;stroke:none;stroke-width:0.24870555"
     id="text826">
    <path
       d="m 17.171996,13.841038 v -3.09046 Q 17.156697,9.2971433 16.896608,7.9814027 16.63652,6.6656621 16.131643,5.5335133 15.657364,4.5084596 14.984195,3.6516982 14.311025,2.7796376 13.423665,2.1676653 12.536305,1.5403936 11.404156,1.1885095 10.287307,0.83662538 8.9868655,0.83662538 q -1.3004413,0 -2.3866922,0.35188412 Q 5.5139223,1.5250943 4.6418617,2.152366 3.7545018,2.7949369 3.0813322,3.6822969 2.4234619,4.5543575 1.9644827,5.6253091 1.4902041,6.7421587 1.2454151,8.0425999 1.0159255,9.3430412 1.0006262,10.750578 v 3.09046 q 0.015299,1.346339 0.2294896,2.585583 0.2141903,1.223945 0.642571,2.294897 0.4589793,1.147448 1.1474482,2.080706 0.6884689,0.917958 1.5605295,1.575829 0.9026592,0.64257 2.0042095,0.994455 1.1015502,0.351884 2.4172908,0.351884 1.2545432,0 2.3254952,-0.321286 1.070951,-0.321285 1.958311,-0.902659 0.948558,-0.642571 1.682924,-1.56053 0.734367,-0.933257 1.223945,-2.050107 0.474279,-1.10155 0.719068,-2.371393 0.244789,-1.285142 0.260088,-2.677379 z m -4.039018,-3.121059 v 3.121059 q 0,0.826163 -0.0918,1.621727 -0.0765,0.780265 -0.260088,1.453434 -0.21419,0.841462 -0.581374,1.514632 -0.351884,0.673169 -0.87206,1.132149 -0.44368,0.413081 -1.025054,0.627271 -0.5813737,0.214191 -1.3004412,0.214191 -0.7496661,0 -1.3310399,-0.22949 Q 7.1050505,19.945462 6.6766698,19.532381 6.2023913,19.088701 5.8658065,18.400232 5.5292217,17.696464 5.3456299,16.885601 5.1773375,16.197132 5.100841,15.432166 5.0396438,14.651901 5.0396438,13.841038 v -3.121059 q 0,-0.841462 0.076496,-1.637026 Q 5.1926369,8.2873889 5.3609293,7.5836207 5.5598203,6.7268594 5.9117044,6.0536898 6.2788878,5.3805202 6.8143636,4.9215409 7.227445,4.5696568 7.7629208,4.3860651 q 0.5354758,-0.198891 1.2239447,-0.198891 0.7037682,0 1.2545435,0.2141903 0.566074,0.198891 1.009754,0.5507751 0.535476,0.4589793 0.902659,1.1321489 0.382483,0.6731696 0.611973,1.4993323 0.198891,0.7037682 0.275387,1.4993323 0.0918,0.795564 0.0918,1.637026 z"
       style="font-style:normal;font-variant:normal;font-weight:bold;font-stretch:normal;font-size:31.33298492px;font-family:'Roboto Mono';-inkscape-font-specification:'Roboto Mono Bold';fill:#000000;fill-opacity:1;stroke-width:0.24870555"
       id="path815" />
  </g>

 </g><g transform="translate(118.5, 19.5) rotate(-10) "> <g
     aria-label="L"
     transform="scale(0.97991699,1.0204946)"
     style="font-style:normal;font-weight:normal;font-size:10.57997036px;line-height:1.25;font-family:sans-serif;letter-spacing:0px;word-spacing:0px;fill:#000000;fill-opacity:1;stroke:none;stroke-width:0.26449919"
     id="text826">
    <path
       d="M 5.1955173,21.129758 V 0.88879988 H 0.93255025 V 24.579182 H 16.389874 v -3.449424 z"
       style="font-style:normal;font-variant:normal;font-weight:bold;font-stretch:normal;font-size:33.32273483px;font-family:'Roboto Mono';-inkscape-font-specification:'Roboto Mono Bold';fill:#000000;fill-opacity:1;stroke-width:0.26449919"
       id="path815" />
  </g>

 </g><g transform="translate(141.5, 16.1) rotate(0) "> <g
     aria-label="I"
     transform="scale(1.0380132,0.96337888)"
     style="font-style:normal;font-weight:normal;font-size:11.20722389px;line-height:1.25;font-family:sans-serif;letter-spacing:0px;word-spacing:0px;fill:#000000;fill-opacity:1;stroke:none;stroke-width:0.28018054"
     id="text826">
    <path
       d="M 0.84366954,0.94149479 V 4.6126596 H 5.9623915 V 22.382476 H 0.84366954 v 3.65393 H 15.493858 v -3.65393 H 10.237252 V 4.6126596 h 5.256606 V 0.94149479 Z"
       style="font-style:normal;font-variant:normal;font-weight:bold;font-stretch:normal;font-size:35.29833603px;font-family:'Roboto Mono';-inkscape-font-specification:'Roboto Mono Bold';fill:#000000;fill-opacity:1;stroke-width:0.28018054"
       id="path815"
       inkscape:connector-curvature="0"
       sodipodi:nodetypes="ccccccccccccc" />
  </g>

 </g><g transform="translate(164.8, 16.7) rotate(10) "> <g
     aria-label="O"
     transform="scale(0.94275316,1.060723)"
     style="font-style:normal;font-weight:normal;font-size:9.94822502px;line-height:1.25;font-family:sans-serif;letter-spacing:0px;word-spacing:0px;fill:#000000;fill-opacity:1;stroke:none;stroke-width:0.24870555"
     id="text826">
    <path
       d="m 17.171996,13.841038 v -3.09046 Q 17.156697,9.2971433 16.896608,7.9814027 16.63652,6.6656621 16.131643,5.5335133 15.657364,4.5084596 14.984195,3.6516982 14.311025,2.7796376 13.423665,2.1676653 12.536305,1.5403936 11.404156,1.1885095 10.287307,0.83662538 8.9868655,0.83662538 q -1.3004413,0 -2.3866922,0.35188412 Q 5.5139223,1.5250943 4.6418617,2.152366 3.7545018,2.7949369 3.0813322,3.6822969 2.4234619,4.5543575 1.9644827,5.6253091 1.4902041,6.7421587 1.2454151,8.0425999 1.0159255,9.3430412 1.0006262,10.750578 v 3.09046 q 0.015299,1.346339 0.2294896,2.585583 0.2141903,1.223945 0.642571,2.294897 0.4589793,1.147448 1.1474482,2.080706 0.6884689,0.917958 1.5605295,1.575829 0.9026592,0.64257 2.0042095,0.994455 1.1015502,0.351884 2.4172908,0.351884 1.2545432,0 2.3254952,-0.321286 1.070951,-0.321285 1.958311,-0.902659 0.948558,-0.642571 1.682924,-1.56053 0.734367,-0.933257 1.223945,-2.050107 0.474279,-1.10155 0.719068,-2.371393 0.244789,-1.285142 0.260088,-2.677379 z m -4.039018,-3.121059 v 3.121059 q 0,0.826163 -0.0918,1.621727 -0.0765,0.780265 -0.260088,1.453434 -0.21419,0.841462 -0.581374,1.514632 -0.351884,0.673169 -0.87206,1.132149 -0.44368,0.413081 -1.025054,0.627271 -0.5813737,0.214191 -1.3004412,0.214191 -0.7496661,0 -1.3310399,-0.22949 Q 7.1050505,19.945462 6.6766698,19.532381 6.2023913,19.088701 5.8658065,18.400232 5.5292217,17.696464 5.3456299,16.885601 5.1773375,16.197132 5.100841,15.432166 5.0396438,14.651901 5.0396438,13.841038 v -3.121059 q 0,-0.841462 0.076496,-1.637026 Q 5.1926369,8.2873889 5.3609293,7.5836207 5.5598203,6.7268594 5.9117044,6.0536898 6.2788878,5.3805202 6.8143636,4.9215409 7.227445,4.5696568 7.7629208,4.3860651 q 0.5354758,-0.198891 1.2239447,-0.198891 0.7037682,0 1.2545435,0.2141903 0.566074,0.198891 1.009754,0.5507751 0.535476,0.4589793 0.902659,1.1321489 0.382483,0.6731696 0.611973,1.4993323 0.198891,0.7037682 0.275387,1.4993323 0.0918,0.795564 0.0918,1.637026 z"
       style="font-style:normal;font-variant:normal;font-weight:bold;font-stretch:normal;font-size:31.33298492px;font-family:'Roboto Mono';-inkscape-font-specification:'Roboto Mono Bold';fill:#000000;fill-opacity:1;stroke-width:0.24870555"
       id="path815" />
  </g>

 </g><g transform="translate(187.7, 21.2) rotate(20) "> <g
     aria-label="-"
     transform="scale(0.91076074,1.0979832)"
     style="font-style:normal;font-weight:normal;font-size:9.83330441px;line-height:1.25;font-family:sans-serif;letter-spacing:0px;word-spacing:0px;fill:#000000;fill-opacity:1;stroke:none;stroke-width:0.24583255"
     id="text826">
    <path
       d="M 15.365107,14.723719 V 11.563101 H 2.9948415 v 3.160618 z"
       style="font-style:normal;font-variant:normal;font-weight:bold;font-stretch:normal;font-size:30.97103119px;font-family:'Roboto Mono';-inkscape-font-specification:'Roboto Mono Bold';fill:#000000;fill-opacity:1;stroke-width:0.24583255"
       id="path815" />
  </g>

 </g><g transform="translate(209.7, 29.9) rotate(30) "> <g
     aria-label="P"
     transform="scale(0.95692948,1.0450091)"
     style="font-style:normal;font-weight:normal;font-size:10.33177853px;line-height:1.25;font-family:sans-serif;letter-spacing:0px;word-spacing:0px;fill:#000000;fill-opacity:1;stroke:none;stroke-width:0.2582944"
     id="text826">
    <path
       d="m 4.6813621,15.358878 h 4.0622774 c 1.2181697,-0.01059 2.3251155,-0.190671 3.3208375,-0.540232 0.995721,-0.349562 1.853737,-0.83683 2.574046,-1.461804 0.709716,-0.624974 1.260541,-1.371765 1.652474,-2.240373 0.391933,-0.879201 0.587899,-1.8484408 0.587899,-2.9077191 0,-1.1122421 -0.195966,-2.1185564 -0.587899,-3.0189429 C 15.899064,4.2894205 15.348239,3.5214438 14.638523,2.8858769 13.918214,2.25031 13.060198,1.7577456 12.064477,1.4081837 11.068755,1.0480291 9.9618092,0.86795184 8.7436395,0.86795184 H 0.92616623 V 24.002588 H 4.6813621 Z m 0,-3.384394 V 4.2364566 h 4.0622774 c 0.6461597,0 1.2128736,0.1059278 1.7001415,0.3177835 0.497861,0.2012629 0.916276,0.4819716 1.255245,0.8421262 0.328376,0.3495618 0.577306,0.7679767 0.746791,1.2552446 0.169485,0.487268 0.254227,1.0169071 0.254227,1.5889174 0,0.5190463 -0.08474,1.0063143 -0.254227,1.4618039 -0.169485,0.4554898 -0.423711,0.8527188 -0.76268,1.1916878 -0.338969,0.338969 -0.752088,0.603789 -1.239356,0.794459 -0.4872679,0.19067 -1.0539818,0.286005 -1.7001415,0.286005 z"
       style="font-style:normal;font-variant:normal;font-weight:bold;font-stretch:normal;font-size:32.54102707px;font-family:'Roboto Mono';-inkscape-font-specification:'Roboto Mono Bold';fill:#000000;fill-opacity:1;stroke-width:0.2582944"
       id="path815"
       inkscape:connector-curvature="0"
       sodipodi:nodetypes="ccsccssccsccccccsccssssssc" />
  </g>

 </g><g transform="translate(229.5, 42) rotate(40) "> <g
     aria-label="O"
     transform="scale(0.94275316,1.060723)"
     style="font-style:normal;font-weight:normal;font-size:9.94822502px;line-height:1.25;font-family:sans-serif;letter-spacing:0px;word-spacing:0px;fill:#000000;fill-opacity:1;stroke:none;stroke-width:0.24870555"
     id="text826">
    <path
       d="m 17.171996,13.841038 v -3.09046 Q 17.156697,9.2971433 16.896608,7.9814027 16.63652,6.6656621 16.131643,5.5335133 15.657364,4.5084596 14.984195,3.6516982 14.311025,2.7796376 13.423665,2.1676653 12.536305,1.5403936 11.404156,1.1885095 10.287307,0.83662538 8.9868655,0.83662538 q -1.3004413,0 -2.3866922,0.35188412 Q 5.5139223,1.5250943 4.6418617,2.152366 3.7545018,2.7949369 3.0813322,3.6822969 2.4234619,4.5543575 1.9644827,5.6253091 1.4902041,6.7421587 1.2454151,8.0425999 1.0159255,9.3430412 1.0006262,10.750578 v 3.09046 q 0.015299,1.346339 0.2294896,2.585583 0.2141903,1.223945 0.642571,2.294897 0.4589793,1.147448 1.1474482,2.080706 0.6884689,0.917958 1.5605295,1.575829 0.9026592,0.64257 2.0042095,0.994455 1.1015502,0.351884 2.4172908,0.351884 1.2545432,0 2.3254952,-0.321286 1.070951,-0.321285 1.958311,-0.902659 0.948558,-0.642571 1.682924,-1.56053 0.734367,-0.933257 1.223945,-2.050107 0.474279,-1.10155 0.719068,-2.371393 0.244789,-1.285142 0.260088,-2.677379 z m -4.039018,-3.121059 v 3.121059 q 0,0.826163 -0.0918,1.621727 -0.0765,0.780265 -0.260088,1.453434 -0.21419,0.841462 -0.581374,1.514632 -0.351884,0.673169 -0.87206,1.132149 -0.44368,0.413081 -1.025054,0.627271 -0.5813737,0.214191 -1.3004412,0.214191 -0.7496661,0 -1.3310399,-0.22949 Q 7.1050505,19.945462 6.6766698,19.532381 6.2023913,19.088701 5.8658065,18.400232 5.5292217,17.696464 5.3456299,16.885601 5.1773375,16.197132 5.100841,15.432166 5.0396438,14.651901 5.0396438,13.841038 v -3.121059 q 0,-0.841462 0.076496,-1.637026 Q 5.1926369,8.2873889 5.3609293,7.5836207 5.5598203,6.7268594 5.9117044,6.0536898 6.2788878,5.3805202 6.8143636,4.9215409 7.227445,4.5696568 7.7629208,4.3860651 q 0.5354758,-0.198891 1.2239447,-0.198891 0.7037682,0 1.2545435,0.2141903 0.566074,0.198891 1.009754,0.5507751 0.535476,0.4589793 0.902659,1.1321489 0.382483,0.6731696 0.611973,1.4993323 0.198891,0.7037682 0.275387,1.4993323 0.0918,0.795564 0.0918,1.637026 z"
       style="font-style:normal;font-variant:normal;font-weight:bold;font-stretch:normal;font-size:31.33298492px;font-family:'Roboto Mono';-inkscape-font-specification:'Roboto Mono Bold';fill:#000000;fill-opacity:1;stroke-width:0.24870555"
       id="path815" />
  </g>

 </g><g transform="translate(247.2, 57.4) rotate(50) "> <g
     aria-label="R"
     transform="scale(0.94374805,1.0596048)"
     style="font-style:normal;font-weight:normal;font-size:10.18946171px;line-height:1.25;font-family:sans-serif;letter-spacing:0px;word-spacing:0px;fill:#000000;fill-opacity:1;stroke:none;stroke-width:0.25473648"
     id="text826">
    <path
       d="m 8.6500265,14.990609 4.3250045,8.68135 h 4.372016 v -0.203714 l -4.889136,-9.480536 q 0.940219,-0.423098 1.692393,-1.002899 0.767845,-0.579802 1.331976,-1.363317 0.532791,-0.752175 0.830527,-1.7237339 0.297735,-0.971559 0.297735,-2.1625024 0,-1.7080634 -0.595471,-2.9930286 Q 15.435269,3.4572629 14.354018,2.6110663 13.257097,1.7491995 11.752747,1.3104309 10.248398,0.85599196 8.4149719,0.85599196 H 0.95590577 V 23.671959 H 5.0458559 v -8.68135 z M 5.0458559,11.652833 V 4.178097 h 3.369116 q 0.9402184,0 1.6767231,0.2350546 0.736504,0.2350546 1.269295,0.6738232 0.564131,0.4701093 0.846196,1.2066137 0.297736,0.7208341 0.297736,1.6610525 0,0.814856 -0.250725,1.4730089 -0.235054,0.6424821 -0.689493,1.0969211 -0.532791,0.548461 -1.331976,0.846197 -0.7835158,0.282065 -1.7864155,0.282065 z"
       style="font-style:normal;font-variant:normal;font-weight:bold;font-stretch:normal;font-size:32.0927887px;font-family:'Roboto Mono';-inkscape-font-specification:'Roboto Mono Bold';fill:#000000;fill-opacity:1;stroke-width:0.25473648"
       id="path815" />
  </g>

 </g><g transform="translate(262, 75.8) rotate(60) "> <g
     aria-label="T"
     transform="scale(0.8981495,1.1134004)"
     style="font-style:normal;font-weight:normal;font-size:9.69714355px;line-height:1.25;font-family:sans-serif;letter-spacing:0px;word-spacing:0px;fill:#000000;fill-opacity:1;stroke:none;stroke-width:0.24242853"
     id="text826">
    <path
       d="M 18.02607,4.0060552 V 0.8146363 H 0.80135575 V 4.0060552 H 7.4377175 V 22.528215 H 11.315142 V 4.0060552 Z"
       style="font-style:normal;font-variant:normal;font-weight:bold;font-stretch:normal;font-size:30.5421772px;font-family:'Roboto Mono';-inkscape-font-specification:'Roboto Mono Bold';fill:#000000;fill-opacity:1;stroke-width:0.24242853"
       id="path815" />
  </g>

 </g><g transform="translate(272.9, 96.5) rotate(70) "> <g
     aria-label="F"
     transform="scale(0.97087718,1.0299964)"
     style="font-style:normal;font-weight:normal;font-size:10.48236942px;line-height:1.25;font-family:sans-serif;letter-spacing:0px;word-spacing:0px;fill:#000000;fill-opacity:1;stroke:none;stroke-width:0.26205918"
     id="text826">
    <path
       d="M 15.131378,14.502647 V 11.068924 H 5.1365021 V 4.3304432 H 16.469401 V 0.88059899 H 0.9128611 V 24.352436 h 4.223641 v -9.849789 z"
       style="font-style:normal;font-variant:normal;font-weight:bold;font-stretch:normal;font-size:33.01533127px;font-family:'Roboto Mono';-inkscape-font-specification:'Roboto Mono Bold';fill:#000000;fill-opacity:1;stroke-width:0.26205918"
       id="path815" />
  </g>

 </g><g transform="translate(280.4, 118.7) rotate(80) "> <g
     aria-label="O"
     transform="scale(0.94275316,1.060723)"
     style="font-style:normal;font-weight:normal;font-size:9.94822502px;line-height:1.25;font-family:sans-serif;letter-spacing:0px;word-spacing:0px;fill:#000000;fill-opacity:1;stroke:none;stroke-width:0.24870555"
     id="text826">
    <path
       d="m 17.171996,13.841038 v -3.09046 Q 17.156697,9.2971433 16.896608,7.9814027 16.63652,6.6656621 16.131643,5.5335133 15.657364,4.5084596 14.984195,3.6516982 14.311025,2.7796376 13.423665,2.1676653 12.536305,1.5403936 11.404156,1.1885095 10.287307,0.83662538 8.9868655,0.83662538 q -1.3004413,0 -2.3866922,0.35188412 Q 5.5139223,1.5250943 4.6418617,2.152366 3.7545018,2.7949369 3.0813322,3.6822969 2.4234619,4.5543575 1.9644827,5.6253091 1.4902041,6.7421587 1.2454151,8.0425999 1.0159255,9.3430412 1.0006262,10.750578 v 3.09046 q 0.015299,1.346339 0.2294896,2.585583 0.2141903,1.223945 0.642571,2.294897 0.4589793,1.147448 1.1474482,2.080706 0.6884689,0.917958 1.5605295,1.575829 0.9026592,0.64257 2.0042095,0.994455 1.1015502,0.351884 2.4172908,0.351884 1.2545432,0 2.3254952,-0.321286 1.070951,-0.321285 1.958311,-0.902659 0.948558,-0.642571 1.682924,-1.56053 0.734367,-0.933257 1.223945,-2.050107 0.474279,-1.10155 0.719068,-2.371393 0.244789,-1.285142 0.260088,-2.677379 z m -4.039018,-3.121059 v 3.121059 q 0,0.826163 -0.0918,1.621727 -0.0765,0.780265 -0.260088,1.453434 -0.21419,0.841462 -0.581374,1.514632 -0.351884,0.673169 -0.87206,1.132149 -0.44368,0.413081 -1.025054,0.627271 -0.5813737,0.214191 -1.3004412,0.214191 -0.7496661,0 -1.3310399,-0.22949 Q 7.1050505,19.945462 6.6766698,19.532381 6.2023913,19.088701 5.8658065,18.400232 5.5292217,17.696464 5.3456299,16.885601 5.1773375,16.197132 5.100841,15.432166 5.0396438,14.651901 5.0396438,13.841038 v -3.121059 q 0,-0.841462 0.076496,-1.637026 Q 5.1926369,8.2873889 5.3609293,7.5836207 5.5598203,6.7268594 5.9117044,6.0536898 6.2788878,5.3805202 6.8143636,4.9215409 7.227445,4.5696568 7.7629208,4.3860651 q 0.5354758,-0.198891 1.2239447,-0.198891 0.7037682,0 1.2545435,0.2141903 0.566074,0.198891 1.009754,0.5507751 0.535476,0.4589793 0.902659,1.1321489 0.382483,0.6731696 0.611973,1.4993323 0.198891,0.7037682 0.275387,1.4993323 0.0918,0.795564 0.0918,1.637026 z"
       style="font-style:normal;font-variant:normal;font-weight:bold;font-stretch:normal;font-size:31.33298492px;font-family:'Roboto Mono';-inkscape-font-specification:'Roboto Mono Bold';fill:#000000;fill-opacity:1;stroke-width:0.24870555"
       id="path815" />
  </g>

 </g><g transform="translate(283.6, 141.4) rotate(90) "> <g
     aria-label="L"
     transform="scale(0.97991699,1.0204946)"
     style="font-style:normal;font-weight:normal;font-size:10.57997036px;line-height:1.25;font-family:sans-serif;letter-spacing:0px;word-spacing:0px;fill:#000000;fill-opacity:1;stroke:none;stroke-width:0.26449919"
     id="text826">
    <path
       d="M 5.1955173,21.129758 V 0.88879988 H 0.93255025 V 24.579182 H 16.389874 v -3.449424 z"
       style="font-style:normal;font-variant:normal;font-weight:bold;font-stretch:normal;font-size:33.32273483px;font-family:'Roboto Mono';-inkscape-font-specification:'Roboto Mono Bold';fill:#000000;fill-opacity:1;stroke-width:0.26449919"
       id="path815" />
  </g>

 </g><g transform="translate(283.1, 164.8) rotate(100) "> <g
     aria-label="I"
     transform="scale(1.0380132,0.96337888)"
     style="font-style:normal;font-weight:normal;font-size:11.20722389px;line-height:1.25;font-family:sans-serif;letter-spacing:0px;word-spacing:0px;fill:#000000;fill-opacity:1;stroke:none;stroke-width:0.28018054"
     id="text826">
    <path
       d="M 0.84366954,0.94149479 V 4.6126596 H 5.9623915 V 22.382476 H 0.84366954 v 3.65393 H 15.493858 v -3.65393 H 10.237252 V 4.6126596 h 5.256606 V 0.94149479 Z"
       style="font-style:normal;font-variant:normal;font-weight:bold;font-stretch:normal;font-size:35.29833603px;font-family:'Roboto Mono';-inkscape-font-specification:'Roboto Mono Bold';fill:#000000;fill-opacity:1;stroke-width:0.28018054"
       id="path815"
       inkscape:connector-curvature="0"
       sodipodi:nodetypes="ccccccccccccc" />
  </g>

 </g><g transform="translate(278.5, 187.6) rotate(110) "> <g
     aria-label="O"
     transform="scale(0.94275316,1.060723)"
     style="font-style:normal;font-weight:normal;font-size:9.94822502px;line-height:1.25;font-family:sans-serif;letter-spacing:0px;word-spacing:0px;fill:#000000;fill-opacity:1;stroke:none;stroke-width:0.24870555"
     id="text826">
    <path
       d="m 17.171996,13.841038 v -3.09046 Q 17.156697,9.2971433 16.896608,7.9814027 16.63652,6.6656621 16.131643,5.5335133 15.657364,4.5084596 14.984195,3.6516982 14.311025,2.7796376 13.423665,2.1676653 12.536305,1.5403936 11.404156,1.1885095 10.287307,0.83662538 8.9868655,0.83662538 q -1.3004413,0 -2.3866922,0.35188412 Q 5.5139223,1.5250943 4.6418617,2.152366 3.7545018,2.7949369 3.0813322,3.6822969 2.4234619,4.5543575 1.9644827,5.6253091 1.4902041,6.7421587 1.2454151,8.0425999 1.0159255,9.3430412 1.0006262,10.750578 v 3.09046 q 0.015299,1.346339 0.2294896,2.585583 0.2141903,1.223945 0.642571,2.294897 0.4589793,1.147448 1.1474482,2.080706 0.6884689,0.917958 1.5605295,1.575829 0.9026592,0.64257 2.0042095,0.994455 1.1015502,0.351884 2.4172908,0.351884 1.2545432,0 2.3254952,-0.321286 1.070951,-0.321285 1.958311,-0.902659 0.948558,-0.642571 1.682924,-1.56053 0.734367,-0.933257 1.223945,-2.050107 0.474279,-1.10155 0.719068,-2.371393 0.244789,-1.285142 0.260088,-2.677379 z m -4.039018,-3.121059 v 3.121059 q 0,0.826163 -0.0918,1.621727 -0.0765,0.780265 -0.260088,1.453434 -0.21419,0.841462 -0.581374,1.514632 -0.351884,0.673169 -0.87206,1.132149 -0.44368,0.413081 -1.025054,0.627271 -0.5813737,0.214191 -1.3004412,0.214191 -0.7496661,0 -1.3310399,-0.22949 Q 7.1050505,19.945462 6.6766698,19.532381 6.2023913,19.088701 5.8658065,18.400232 5.5292217,17.696464 5.3456299,16.885601 5.1773375,16.197132 5.100841,15.432166 5.0396438,14.651901 5.0396438,13.841038 v -3.121059 q 0,-0.841462 0.076496,-1.637026 Q 5.1926369,8.2873889 5.3609293,7.5836207 5.5598203,6.7268594 5.9117044,6.0536898 6.2788878,5.3805202 6.8143636,4.9215409 7.227445,4.5696568 7.7629208,4.3860651 q 0.5354758,-0.198891 1.2239447,-0.198891 0.7037682,0 1.2545435,0.2141903 0.566074,0.198891 1.009754,0.5507751 0.535476,0.4589793 0.902659,1.1321489 0.382483,0.6731696 0.611973,1.4993323 0.198891,0.7037682 0.275387,1.4993323 0.0918,0.795564 0.0918,1.637026 z"
       style="font-style:normal;font-variant:normal;font-weight:bold;font-stretch:normal;font-size:31.33298492px;font-family:'Roboto Mono';-inkscape-font-specification:'Roboto Mono Bold';fill:#000000;fill-opacity:1;stroke-width:0.24870555"
       id="path815" />
  </g>

 </g><g transform="translate(269.9, 209.5) rotate(120) "> <g
     aria-label="-"
     transform="scale(0.91076074,1.0979832)"
     style="font-style:normal;font-weight:normal;font-size:9.83330441px;line-height:1.25;font-family:sans-serif;letter-spacing:0px;word-spacing:0px;fill:#000000;fill-opacity:1;stroke:none;stroke-width:0.24583255"
     id="text826">
    <path
       d="M 15.365107,14.723719 V 11.563101 H 2.9948415 v 3.160618 z"
       style="font-style:normal;font-variant:normal;font-weight:bold;font-stretch:normal;font-size:30.97103119px;font-family:'Roboto Mono';-inkscape-font-specification:'Roboto Mono Bold';fill:#000000;fill-opacity:1;stroke-width:0.24583255"
       id="path815" />
  </g>

 </g><g transform="translate(257.8, 229.1) rotate(130) "> <g
     aria-label="W"
     transform="matrix(0.94083231,0,0,1.0958529,-0.26414116,0)"
     style="font-style:normal;font-weight:normal;font-size:9.85241985px;line-height:1.25;font-family:sans-serif;letter-spacing:0px;word-spacing:0px;fill:#000000;fill-opacity:1;stroke:none;stroke-width:0.24631044"
     id="text826">
    <path
       d="m 3.4543042,22.888952 h 3.6516253 c 0.7166439,-4.59731 1.4792717,-7.250248 2.1818839,-11.849165 0.7252496,4.599253 1.5008606,7.25363 2.2576436,11.849165 h 3.636474 L 18.166869,0.82768109 H 14.315952 C 13.780077,5.4544691 13.424975,8.1405538 12.893983,12.767758 12.18444,8.139932 11.783593,5.4538452 11.059404,0.82768109 H 7.4859194 C 6.7557514,5.4248372 6.4925974,8.0990105 5.7271,12.691999 5.2166371,8.0892596 5.1345112,5.4285359 4.6011568,0.82768109 H 0.49966969 Z"
       style="font-style:normal;font-variant:normal;font-weight:bold;font-stretch:normal;font-size:31.03123856px;font-family:'Roboto Mono';-inkscape-font-specification:'Roboto Mono Bold';fill:#000000;fill-opacity:1;stroke-width:0.24631044"
       id="path818"
       inkscape:connector-curvature="0"
       sodipodi:nodetypes="cccccccccccccc" />
  </g>

 </g><g transform="translate(243.1, 247) rotate(140) "> <g
     aria-label="O"
     transform="scale(0.94275316,1.060723)"
     style="font-style:normal;font-weight:normal;font-size:9.94822502px;line-height:1.25;font-family:sans-serif;letter-spacing:0px;word-spacing:0px;fill:#000000;fill-opacity:1;stroke:none;stroke-width:0.24870555"
     id="text826">
    <path
       d="m 17.171996,13.841038 v -3.09046 Q 17.156697,9.2971433 16.896608,7.9814027 16.63652,6.6656621 16.131643,5.5335133 15.657364,4.5084596 14.984195,3.6516982 14.311025,2.7796376 13.423665,2.1676653 12.536305,1.5403936 11.404156,1.1885095 10.287307,0.83662538 8.9868655,0.83662538 q -1.3004413,0 -2.3866922,0.35188412 Q 5.5139223,1.5250943 4.6418617,2.152366 3.7545018,2.7949369 3.0813322,3.6822969 2.4234619,4.5543575 1.9644827,5.6253091 1.4902041,6.7421587 1.2454151,8.0425999 1.0159255,9.3430412 1.0006262,10.750578 v 3.09046 q 0.015299,1.346339 0.2294896,2.585583 0.2141903,1.223945 0.642571,2.294897 0.4589793,1.147448 1.1474482,2.080706 0.6884689,0.917958 1.5605295,1.575829 0.9026592,0.64257 2.0042095,0.994455 1.1015502,0.351884 2.4172908,0.351884 1.2545432,0 2.3254952,-0.321286 1.070951,-0.321285 1.958311,-0.902659 0.948558,-0.642571 1.682924,-1.56053 0.734367,-0.933257 1.223945,-2.050107 0.474279,-1.10155 0.719068,-2.371393 0.244789,-1.285142 0.260088,-2.677379 z m -4.039018,-3.121059 v 3.121059 q 0,0.826163 -0.0918,1.621727 -0.0765,0.780265 -0.260088,1.453434 -0.21419,0.841462 -0.581374,1.514632 -0.351884,0.673169 -0.87206,1.132149 -0.44368,0.413081 -1.025054,0.627271 -0.5813737,0.214191 -1.3004412,0.214191 -0.7496661,0 -1.3310399,-0.22949 Q 7.1050505,19.945462 6.6766698,19.532381 6.2023913,19.088701 5.8658065,18.400232 5.5292217,17.696464 5.3456299,16.885601 5.1773375,16.197132 5.100841,15.432166 5.0396438,14.651901 5.0396438,13.841038 v -3.121059 q 0,-0.841462 0.076496,-1.637026 Q 5.1926369,8.2873889 5.3609293,7.5836207 5.5598203,6.7268594 5.9117044,6.0536898 6.2788878,5.3805202 6.8143636,4.9215409 7.227445,4.5696568 7.7629208,4.3860651 q 0.5354758,-0.198891 1.2239447,-0.198891 0.7037682,0 1.2545435,0.2141903 0.566074,0.198891 1.009754,0.5507751 0.535476,0.4589793 0.902659,1.1321489 0.382483,0.6731696 0.611973,1.4993323 0.198891,0.7037682 0.275387,1.4993323 0.0918,0.795564 0.0918,1.637026 z"
       style="font-style:normal;font-variant:normal;font-weight:bold;font-stretch:normal;font-size:31.33298492px;font-family:'Roboto Mono';-inkscape-font-specification:'Roboto Mono Bold';fill:#000000;fill-opacity:1;stroke-width:0.24870555"
       id="path815" />
  </g>

 </g><g transform="translate(224.5, 261.8) rotate(150) "> <g
     aria-label="R"
     transform="scale(0.94374805,1.0596048)"
     style="font-style:normal;font-weight:normal;font-size:10.18946171px;line-height:1.25;font-family:sans-serif;letter-spacing:0px;word-spacing:0px;fill:#000000;fill-opacity:1;stroke:none;stroke-width:0.25473648"
     id="text826">
    <path
       d="m 8.6500265,14.990609 4.3250045,8.68135 h 4.372016 v -0.203714 l -4.889136,-9.480536 q 0.940219,-0.423098 1.692393,-1.002899 0.767845,-0.579802 1.331976,-1.363317 0.532791,-0.752175 0.830527,-1.7237339 0.297735,-0.971559 0.297735,-2.1625024 0,-1.7080634 -0.595471,-2.9930286 Q 15.435269,3.4572629 14.354018,2.6110663 13.257097,1.7491995 11.752747,1.3104309 10.248398,0.85599196 8.4149719,0.85599196 H 0.95590577 V 23.671959 H 5.0458559 v -8.68135 z M 5.0458559,11.652833 V 4.178097 h 3.369116 q 0.9402184,0 1.6767231,0.2350546 0.736504,0.2350546 1.269295,0.6738232 0.564131,0.4701093 0.846196,1.2066137 0.297736,0.7208341 0.297736,1.6610525 0,0.814856 -0.250725,1.4730089 -0.235054,0.6424821 -0.689493,1.0969211 -0.532791,0.548461 -1.331976,0.846197 -0.7835158,0.282065 -1.7864155,0.282065 z"
       style="font-style:normal;font-variant:normal;font-weight:bold;font-stretch:normal;font-size:32.0927887px;font-family:'Roboto Mono';-inkscape-font-specification:'Roboto Mono Bold';fill:#000000;fill-opacity:1;stroke-width:0.25473648"
       id="path815" />
  </g>

 </g><g transform="translate(203.5, 273) rotate(160) "> <g
     aria-label="K"
     transform="scale(0.93291214,1.0719123)"
     style="font-style:normal;font-weight:normal;font-size:10.07246876px;line-height:1.25;font-family:sans-serif;letter-spacing:0px;word-spacing:0px;fill:#000000;fill-opacity:1;stroke:none;stroke-width:0.25181165"
     id="text826">
    <path
       d="m 7.3976978,13.889067 5.8398742,9.511095 h 4.817509 L 10.077534,10.806481 17.729783,0.84616558 H 12.788351 L 7.0569094,8.5758662 4.9966886,11.317664 V 0.84616558 H 0.9227181 V 23.400162 h 4.0739705 v -6.846749 z"
       style="font-style:normal;font-variant:normal;font-weight:bold;font-stretch:normal;font-size:31.72430229px;font-family:'Roboto Mono';-inkscape-font-specification:'Roboto Mono Bold';fill:#000000;fill-opacity:1;stroke-width:0.25181165"
       id="path815" />
  </g>

 </g><g transform="translate(181.5, 280.6) rotate(170) "> <g
     aria-label="-"
     transform="scale(0.91076074,1.0979832)"
     style="font-style:normal;font-weight:normal;font-size:9.83330441px;line-height:1.25;font-family:sans-serif;letter-spacing:0px;word-spacing:0px;fill:#000000;fill-opacity:1;stroke:none;stroke-width:0.24583255"
     id="text826">
    <path
       d="M 15.365107,14.723719 V 11.563101 H 2.9948415 v 3.160618 z"
       style="font-style:normal;font-variant:normal;font-weight:bold;font-stretch:normal;font-size:30.97103119px;font-family:'Roboto Mono';-inkscape-font-specification:'Roboto Mono Bold';fill:#000000;fill-opacity:1;stroke-width:0.24583255"
       id="path815" />
  </g>

 </g>   </svg>
