<svg width="19" height="26" viewBox="0 0 19 26" fill="none" xmlns="http://www.w3.org/2000/svg">
<g clip-path="url(#clip0)">
<path d="M19 5.10962L17.2691 23.9088L9.48837 26L1.72912 23.9117L0 5.10962H19Z" fill="black"/>
<path d="M15.7872 22.7117L17.2664 6.64697H9.5V24.4016L15.7872 22.7117Z" fill="#7E6F6F"/>
<path d="M3.96484 13.6204L4.17803 15.9263H9.50088V13.6204H3.96484Z" fill="#EBEBEB"/>
<path d="M9.49956 8.953H9.49133H3.53516L3.75138 11.259H9.49956V8.953Z" fill="#EBEBEB"/>
<path d="M9.49978 22.0085V19.6093L9.48935 19.612L6.84029 18.9185L6.67094 17.0793H5.38371H4.2832L4.61644 20.7001L9.48883 22.0114L9.49978 22.0085Z" fill="#EBEBEB"/>
<path d="M4.47266 0H7.35356V1.16797H5.6774V2.33594H7.35356V3.50391H4.47266V0Z" fill="black"/>
<path d="M7.92969 0H10.8106V1.01562H9.13443V1.21875H10.8106V3.55469H7.92969V2.48828H9.60585V2.28516H7.92969V0Z" fill="black"/>
<path d="M11.3848 0H14.2657V1.01562H12.5895V1.21875H14.2657V3.55469H11.3848V2.48828H13.0609V2.28516H11.3848V0Z" fill="black"/>
<path d="M12.4212 15.9264L12.1451 18.9171L9.49219 19.6113V22.0104L14.3685 20.7002L14.4042 20.3106L14.9632 14.2396L15.0212 13.6204L15.4506 8.953H9.49219V11.259H12.8439L12.6274 13.6204H9.49219V15.9264H12.4212Z" fill="white"/>
</g>
<defs>
<clipPath id="clip0">
<rect width="19" height="26" fill="white"/>
</clipPath>
</defs>
</svg>
