<svg width="27" height="26" viewBox="0 0 27 26" fill="none" xmlns="http://www.w3.org/2000/svg">
<g clip-path="url(#clip0)">
<path d="M26.1727 11.8557L14.5252 0.512694C13.855 -0.140624 12.7671 -0.140624 12.0961 0.512694L9.67765 2.86845L12.7454 5.85637C13.4586 5.62184 14.276 5.77908 14.8443 6.33262C15.4154 6.88961 15.5757 7.69258 15.3289 8.38952L18.2857 11.2693C19.001 11.0292 19.8264 11.1844 20.3976 11.7417C21.1961 12.5192 21.1961 13.7792 20.3976 14.557C19.5989 15.335 18.3052 15.335 17.5061 14.557C16.9056 13.9717 16.7571 13.1124 17.0612 12.3918L14.3037 9.70606L14.3035 16.7736C14.4982 16.8674 14.6819 16.9927 14.8442 17.15C15.6425 17.9275 15.6425 19.1872 14.8442 19.966C14.0456 20.7435 12.7514 20.7435 11.9536 19.966C11.1552 19.1873 11.1552 17.9276 11.9536 17.15C12.151 16.9582 12.3793 16.813 12.6229 16.7157V9.58248C12.3792 9.48556 12.1511 9.34143 11.9535 9.14804C11.3487 8.55944 11.203 7.69491 11.5132 6.97155L8.48899 4.0256L0.503242 11.8033C-0.167747 12.4571 -0.167747 13.5166 0.503242 14.17L12.1501 25.5129C12.8206 26.1663 13.9081 26.1663 14.5796 25.5129L26.1726 14.2235C26.8433 13.5699 26.8433 12.5101 26.1726 11.8566" fill="black"/>
</g>
<defs>
<clipPath id="clip0">
<rect width="26.963" height="26" fill="white"/>
</clipPath>
</defs>
</svg>
