<svg width="16" height="34" viewBox="0 0 16 34" fill="none" xmlns="http://www.w3.org/2000/svg">
<path fill-rule="evenodd" clip-rule="evenodd" d="M7.61064 26.8293C5.61863 26.8293 4.0794 26.53 3.33922 26.3517C2.83305 26.2298 2.42661 26.1036 2.11784 25.9739L3.10502 27.6605L3.49117 32.9303C3.49117 33.5211 5.36793 34 7.683 34C9.99807 34 11.8748 33.5211 11.8748 32.9303L12.1806 27.6032L13.1146 25.969C12.8046 26.1004 12.3945 26.2283 11.882 26.3517C11.1418 26.53 9.60256 26.8293 7.61064 26.8293ZM13.1467 9.68112C11.6847 9.88531 9.74428 9.99782 7.683 9.99782C5.62172 9.99782 3.68134 9.88531 2.21932 9.68112C1.49511 9.57999 0.922144 9.46068 0.516312 9.32673C0.419509 9.2947 0.255465 9.24007 0.0975972 9.15307L1.00342 17.4897C1.04551 17.3461 1.09237 17.2027 1.14434 17.0599C1.25067 16.7671 1.37368 16.4808 1.51329 16.2012C1.65298 15.9216 1.80502 15.6573 1.96942 15.4084C2.13373 15.1595 2.30871 14.9304 2.49411 14.721C2.6796 14.5116 2.86985 14.3316 3.06522 14.1807C3.26051 14.03 3.45764 13.9121 3.65663 13.8272C3.85571 13.7423 4.05284 13.6998 4.24813 13.6998C4.47306 13.6998 4.69067 13.7613 4.90086 13.8843C5.11097 14.0072 5.3074 14.2064 5.49042 14.4816C5.53242 14.5431 5.55907 14.6054 5.5701 14.6683C5.58131 14.7313 5.58678 14.7906 5.58678 14.8462C5.58678 14.9779 5.55528 15.082 5.49227 15.158C5.42926 15.2342 5.35443 15.2722 5.26795 15.2722C5.18871 15.2722 5.11521 15.2305 5.04726 15.1471C4.97922 15.0636 4.90324 14.9443 4.81915 14.7891C4.73999 14.6485 4.6529 14.5469 4.55777 14.4839C4.46256 14.4209 4.3594 14.3894 4.24813 14.3894C4.07508 14.3894 3.8903 14.4612 3.69378 14.6047C3.49717 14.7481 3.30251 14.9377 3.10979 15.1734C2.91689 15.4092 2.7321 15.6785 2.55535 15.9816C2.3786 16.2846 2.22215 16.595 2.08616 16.9127C1.95018 17.2305 1.84217 17.5439 1.76178 17.8527C1.68139 18.1616 1.64124 18.439 1.64124 18.6849C1.64124 18.767 1.64689 18.8513 1.65792 18.9375C1.66912 19.024 1.69004 19.1022 1.72101 19.1726C1.75181 19.2429 1.7939 19.3006 1.84702 19.3459C1.90023 19.3914 1.96756 19.414 2.0491 19.414C2.14061 19.414 2.24438 19.3833 2.36069 19.3218C2.47682 19.2605 2.59736 19.1798 2.72213 19.0804C2.847 18.9807 2.97248 18.868 3.09858 18.742C3.22477 18.6162 3.34213 18.4889 3.45085 18.3599C3.55956 18.2312 3.65601 18.1074 3.74002 17.9889C3.82412 17.8703 3.88712 17.767 3.92921 17.6791L4.27407 16.647C4.31607 16.5358 4.37105 16.4567 4.43908 16.4099C4.50703 16.363 4.57692 16.3395 4.64866 16.3395C4.68317 16.3395 4.71776 16.3454 4.75244 16.3571C4.78712 16.3688 4.81791 16.3872 4.84518 16.412C4.87236 16.4369 4.89398 16.4691 4.91004 16.5087C4.9261 16.5481 4.93413 16.5943 4.93413 16.647C4.93413 16.7875 4.92178 16.9192 4.89707 17.0423C4.87236 17.1654 4.84086 17.2853 4.80247 17.4025C4.76417 17.5195 4.72146 17.6374 4.67452 17.756C4.62757 17.8746 4.58177 17.9983 4.53739 18.1272C4.5275 18.1419 4.50959 18.1879 4.48356 18.2654C4.45762 18.3432 4.4262 18.4406 4.38905 18.5576C4.35199 18.6748 4.31175 18.8057 4.26851 18.9507C4.22518 19.0957 4.1808 19.2435 4.13509 19.3943C4.08929 19.5451 4.04543 19.693 4.00343 19.838C3.96133 19.9829 3.92357 20.114 3.8903 20.2311C3.85694 20.3482 3.82915 20.4462 3.80682 20.5253C3.78458 20.6044 3.77099 20.6512 3.76605 20.666C3.7537 20.7127 3.73384 20.7648 3.70675 20.8218C3.67957 20.8789 3.64745 20.9331 3.6103 20.9843C3.57324 21.0355 3.53247 21.0781 3.48791 21.1116C3.44343 21.1453 3.39772 21.1622 3.35069 21.1622C3.27162 21.1622 3.21409 21.1358 3.17835 21.0832C3.14244 21.0305 3.12461 20.9338 3.12461 20.7933V20.7318C3.12461 20.7113 3.12576 20.6892 3.12823 20.666C3.13061 20.6191 3.14923 20.5312 3.18391 20.4022C3.2185 20.2735 3.25989 20.1279 3.30816 19.9654C3.35634 19.8028 3.40831 19.6344 3.46391 19.4602C3.51941 19.286 3.56953 19.1301 3.6141 18.9925C3.48288 19.139 3.3409 19.2846 3.18762 19.4295C3.03425 19.5744 2.87726 19.7048 2.71666 19.8204C2.55588 19.9361 2.39396 20.0305 2.23088 20.1037C2.06772 20.1769 1.91073 20.2136 1.75993 20.2136C1.58688 20.2136 1.43793 20.1755 1.31297 20.0993C1.29047 20.0855 1.2692 20.07 1.24803 20.0547L1.75207 25.3394C1.88329 25.6683 4.35358 26.4763 7.61064 26.4763C10.8692 26.4763 13.3405 25.6675 13.4694 25.3388L14.1934 19.0557C14.1335 19.1107 14.0752 19.1645 14.0194 19.2165C13.8117 19.4097 13.6157 19.5758 13.4315 19.7149C13.2475 19.854 13.0675 19.9617 12.892 20.0377C12.7164 20.114 12.5285 20.152 12.3283 20.152C12.1404 20.152 11.9951 20.111 11.8926 20.029C11.79 19.9471 11.7387 19.8344 11.7387 19.6908V19.6579C11.7387 19.6477 11.7399 19.6351 11.7425 19.6205C11.7523 19.5328 11.7907 19.4316 11.8574 19.3175C11.9242 19.2032 12.0045 19.0847 12.0983 18.9618C12.1923 18.8388 12.2924 18.7142 12.3987 18.5883C12.5051 18.4625 12.6034 18.3432 12.6936 18.2303C12.7838 18.1178 12.8586 18.0146 12.9179 17.9208C12.9773 17.827 13.007 17.751 13.007 17.6924C13.007 17.6573 12.9945 17.6295 12.9699 17.6088C12.9451 17.5885 12.9043 17.5781 12.8475 17.5781C12.7486 17.5781 12.6466 17.6038 12.5417 17.655C12.4365 17.7061 12.3325 17.7752 12.23 17.8615C12.1275 17.9478 12.0273 18.0468 11.9296 18.158C11.8321 18.2692 11.7406 18.3849 11.6553 18.5048C11.5699 18.625 11.4922 18.7458 11.4217 18.8673C11.3512 18.9889 11.2913 19.1008 11.2418 19.2032C11.2269 19.2355 11.2059 19.2809 11.1787 19.3394C11.1515 19.3979 11.1218 19.464 11.0897 19.5371C11.0575 19.6104 11.0235 19.6858 10.9877 19.7632C10.9519 19.8409 10.9192 19.9142 10.8895 19.9829C10.8599 20.0517 10.8333 20.1131 10.8099 20.1673C10.7863 20.2214 10.7696 20.2589 10.7597 20.2794C10.7473 20.3057 10.727 20.3554 10.6985 20.4286C10.6701 20.5019 10.6373 20.5876 10.6003 20.6856C10.5633 20.7836 10.5243 20.8869 10.4834 20.9953C10.4428 21.1035 10.4043 21.2061 10.3685 21.3028C10.3326 21.3993 10.3011 21.4843 10.274 21.5575C10.2468 21.6306 10.2294 21.6805 10.2219 21.7068C10.1973 21.783 10.1682 21.8546 10.1349 21.9222C10.1015 21.9894 10.0633 22.0487 10.02 22.1001C9.97671 22.1512 9.92729 22.1922 9.87161 22.2229C9.81593 22.2538 9.75354 22.269 9.68445 22.269C9.59532 22.269 9.5219 22.2477 9.46366 22.2053C9.40569 22.1629 9.37657 22.0815 9.37657 21.9616C9.37657 21.903 9.38398 21.843 9.3988 21.7816C9.41363 21.7201 9.43225 21.6592 9.45449 21.5993C9.47672 21.5391 9.49967 21.4807 9.52314 21.4236C9.54652 21.3664 9.56823 21.3116 9.58791 21.2588C9.72151 20.966 9.85749 20.6725 9.99586 20.3782C10.1342 20.084 10.2671 19.7927 10.3945 19.5042C10.421 19.444 10.4454 19.3851 10.4712 19.3252C10.4635 19.3328 10.4559 19.3408 10.4483 19.3482C10.2875 19.5035 10.1275 19.6403 9.96806 19.7589C9.80852 19.8775 9.6503 19.9719 9.49349 20.0422C9.33642 20.1124 9.18376 20.1476 9.03533 20.1476C8.93403 20.1476 8.8494 20.1315 8.78145 20.0993C8.71342 20.067 8.65915 20.0231 8.61829 19.9676C8.57744 19.912 8.54832 19.846 8.53102 19.7699C8.5252 19.7439 8.52158 19.7167 8.51778 19.6896C8.47437 19.7234 8.4306 19.7563 8.38648 19.7875C8.2332 19.8957 8.08239 19.9829 7.93405 20.0487C7.7858 20.1147 7.6522 20.1476 7.53369 20.1476C7.41492 20.1476 7.31855 20.108 7.24425 20.029C7.17013 19.95 7.13316 19.8153 7.13316 19.625C7.13316 19.4902 7.15292 19.3335 7.19237 19.155C7.12813 19.2692 7.04782 19.3849 6.95146 19.5019C6.85492 19.6191 6.74497 19.7259 6.62143 19.8227C6.49763 19.9192 6.35926 19.9976 6.20607 20.0576C6.0527 20.1176 5.88583 20.1476 5.70547 20.1476C5.62384 20.1476 5.54539 20.1373 5.46994 20.1169C5.3945 20.0963 5.3284 20.0612 5.27157 20.0114C5.21466 19.9617 5.16903 19.895 5.13435 19.8116C5.09976 19.7282 5.08247 19.6234 5.08247 19.4976C5.08247 19.4947 5.08741 19.45 5.09729 19.3635C5.10718 19.2771 5.13868 19.141 5.19189 18.9551C5.24501 18.7692 5.32725 18.5283 5.43835 18.2325C5.54972 17.9368 5.7067 17.5781 5.9094 17.1566C5.96128 17.0452 6.02129 16.9654 6.08915 16.9172C6.15727 16.8688 6.23069 16.8446 6.30976 16.8446C6.34444 16.8446 6.38026 16.8498 6.41733 16.86C6.45456 16.8703 6.48907 16.8864 6.52128 16.9083C6.55331 16.9303 6.57934 16.9582 6.5992 16.9918C6.61878 17.0254 6.62884 17.0642 6.62884 17.1081C6.62884 17.1374 6.62505 17.1654 6.61764 17.1915C6.6052 17.2415 6.57863 17.3065 6.53804 17.387C6.49719 17.4676 6.44953 17.5598 6.39509 17.6638C6.34082 17.7677 6.28328 17.8797 6.22275 17.9999C6.16212 18.1198 6.10591 18.2443 6.05403 18.3732C6.00214 18.5021 5.95758 18.6331 5.92051 18.7663C5.88345 18.8996 5.86236 19.0292 5.85751 19.155C5.85751 19.2077 5.86977 19.256 5.89457 19.2999C5.91928 19.3439 5.96014 19.3657 6.01696 19.3657C6.17757 19.3657 6.33085 19.313 6.4768 19.2077C6.62258 19.1022 6.75724 18.9712 6.88096 18.8146C7.00458 18.6579 7.11639 18.4895 7.21655 18.3094C7.3167 18.1293 7.40009 17.9647 7.4668 17.8153C7.51384 17.7159 7.55522 17.6088 7.59105 17.4947C7.62688 17.3804 7.66588 17.2752 7.70788 17.1785C7.74998 17.0817 7.79807 17.0013 7.85252 16.9368C7.90679 16.8725 7.97491 16.8402 8.05636 16.8402C8.14548 16.8402 8.21581 16.8739 8.26788 16.9413C8.31976 17.0087 8.34562 17.0891 8.34562 17.1828C8.34562 17.2355 8.32903 17.3081 8.29559 17.4003C8.26214 17.4925 8.22014 17.598 8.16949 17.7166C8.11875 17.8352 8.06377 17.9618 8.00456 18.0964C7.94526 18.2312 7.89011 18.368 7.83963 18.5071C7.78872 18.6462 7.74689 18.7824 7.71344 18.9156C7.68 19.0488 7.66341 19.1726 7.66341 19.2867C7.66341 19.3921 7.71777 19.4449 7.82648 19.4449C7.90317 19.4449 7.99829 19.4185 8.11204 19.3657C8.22579 19.313 8.34509 19.2391 8.46987 19.1439C8.50102 19.1202 8.53243 19.0954 8.56358 19.0693C8.59844 18.9256 8.63929 18.7927 8.68686 18.6719C8.77334 18.4433 8.86114 18.2165 8.95018 17.9911C9.03912 17.7656 9.12066 17.5591 9.19496 17.3717L10.3185 14.5387C10.363 14.4246 10.423 14.344 10.4982 14.2971C10.5738 14.2504 10.6497 14.2269 10.7264 14.2269C10.8029 14.2269 10.8727 14.2518 10.9358 14.3015C10.9989 14.3514 11.0305 14.4319 11.0305 14.5432C11.0305 14.5958 11.0199 14.6515 10.9989 14.71C10.9779 14.7686 10.9514 14.8315 10.9192 14.8989C10.8575 15.0366 10.7839 15.2049 10.6985 15.404C10.6132 15.6031 10.5217 15.8199 10.4241 16.0541C10.3264 16.2883 10.2263 16.5321 10.1237 16.7853C10.0212 17.0387 9.92103 17.2853 9.82334 17.5254C9.72583 17.7656 9.63424 17.9931 9.54891 18.2084C9.46366 18.4237 9.39025 18.6104 9.3283 18.7684C9.30112 18.8358 9.27456 18.9142 9.2487 19.0035C9.22267 19.0927 9.20979 19.1726 9.20979 19.2429C9.20979 19.2867 9.2172 19.3218 9.23203 19.3482C9.24685 19.3746 9.27526 19.3878 9.31727 19.3878C9.36915 19.3878 9.43401 19.3695 9.51193 19.3328C9.58976 19.2963 9.67377 19.2478 9.76404 19.1878C9.85441 19.1279 9.9483 19.0591 10.0458 18.9814C10.1436 18.9039 10.2406 18.8234 10.3369 18.7399C10.4335 18.6564 10.5255 18.573 10.6132 18.4895C10.7009 18.4061 10.7795 18.3292 10.8488 18.2589C10.8651 18.242 10.8845 18.2301 10.9058 18.2212C10.9476 18.0965 10.9857 17.9744 11.0193 17.8549C11.0391 17.8022 11.0663 17.7276 11.1009 17.6309C11.1354 17.5342 11.1751 17.439 11.2195 17.3453C11.264 17.2517 11.3142 17.1703 11.3696 17.1016C11.4253 17.0328 11.4853 16.9983 11.5496 16.9983C11.6485 16.9983 11.7202 17.0211 11.7647 17.0664C11.8092 17.1119 11.8314 17.1785 11.8314 17.2663C11.8314 17.2839 11.8289 17.3117 11.824 17.3497C11.819 17.3879 11.813 17.4282 11.8056 17.4706C11.7981 17.513 11.79 17.5533 11.7814 17.5914C11.7726 17.6295 11.7647 17.6573 11.7573 17.6748C11.8486 17.5752 11.9475 17.4764 12.0539 17.3784C12.1602 17.2803 12.2702 17.1915 12.3839 17.1126C12.4977 17.0335 12.6139 16.9692 12.7326 16.9192C12.8512 16.8696 12.9699 16.8446 13.0885 16.8446C13.1701 16.8446 13.2511 16.8564 13.3314 16.8798C13.4117 16.9032 13.4835 16.9376 13.5464 16.983C13.6095 17.0285 13.6609 17.0855 13.7003 17.1544C13.7399 17.2231 13.7596 17.3029 13.7596 17.3937C13.7596 17.5139 13.7294 17.6419 13.6688 17.7781C13.6083 17.9142 13.5323 18.0511 13.4408 18.1886C13.3493 18.3263 13.2504 18.4602 13.1442 18.5905C13.0379 18.7209 12.9384 18.8394 12.8457 18.9462C12.7529 19.0533 12.675 19.1439 12.6119 19.2186C12.5491 19.2934 12.5161 19.3439 12.5137 19.3702C12.5137 19.4054 12.5249 19.4339 12.5472 19.4559C12.5694 19.4778 12.6065 19.4888 12.6583 19.4888C12.7003 19.4888 12.7623 19.4654 12.8437 19.4185C12.9253 19.3717 13.0397 19.2905 13.1867 19.1748C13.3338 19.0591 13.5206 18.9039 13.7467 18.7091C13.9019 18.5757 14.0835 18.4166 14.2881 18.2356L15.2688 9.1528C15.1109 9.23999 14.9466 9.2947 14.8497 9.32673C14.4439 9.46068 13.871 9.57999 13.1467 9.68112ZM7.67718 7.52612C3.43721 7.52612 0 8.0002 0 8.58504C0 9.16989 3.43721 9.64396 7.67718 9.64396C11.9171 9.64396 15.3544 9.16989 15.3544 8.58504C15.3544 8.0002 11.9171 7.52612 7.67718 7.52612ZM10.7426 8.89451C10.7426 9.03173 10.3341 9.14301 9.83014 9.14301C9.32627 9.14301 8.91779 9.03173 8.91779 8.89451C8.91779 8.75721 9.32627 8.64593 9.83014 8.64593C10.3341 8.64593 10.7426 8.75721 10.7426 8.89451Z" fill="black"/>
<path fill-rule="evenodd" clip-rule="evenodd" d="M9.10256 8.78465C9.09804 8.79187 9.0957 8.79923 9.0957 8.80672C9.0957 8.89558 9.42459 8.96749 9.83015 8.96749C10.2358 8.96749 10.5646 8.89558 10.5646 8.80672L11.5239 4.91712L15.3389 0.889274C15.3402 0.888045 15.3414 0.886773 15.3425 0.885458C15.4233 0.794126 15.2594 0.511483 14.9875 0.269078C14.7157 0.0266736 14.4221 -0.0553928 14.3308 0.0369098C14.3301 0.0376001 14.3295 0.0383002 14.3288 0.0390099L10.2584 4.32219L9.10256 8.78465Z" fill="black"/>
</svg>
