<svg width="26" height="26" viewBox="0 0 26 26" fill="none" xmlns="http://www.w3.org/2000/svg">
<path d="M5.4654 23.9117L3.78906 5.10962H22.2091L20.531 23.9088L12.9878 26L5.4654 23.9117Z" fill="black"/>
<path d="M13 24.4016L19.0953 22.7117L20.5293 6.64697H13V24.4016Z" fill="black"/>
<path d="M12.9992 13.6204H9.94771L9.73697 11.259H12.9992V8.953H12.9912H7.2168L7.272 9.57167L7.83877 15.9264H12.9992V13.6204Z" fill="#EBEBEB"/>
<path d="M12.9988 19.6093L12.9887 19.612L10.4204 18.9185L10.2563 17.0793H9.00832H7.94141L8.26448 20.7001L12.9881 22.0114L12.9988 22.0085V19.6093Z" fill="#EBEBEB"/>
<path d="M5.50391 0H6.67579V1.15781H7.74778V0H8.91971V3.50614H7.74783V2.33208H6.67584V3.50614H5.50396V0H5.50391Z" fill="black"/>
<path d="M10.4594 1.16269H9.42773V0H12.6635V1.16269H11.6314V3.50614H10.4595V1.16269H10.4594Z" fill="black"/>
<path d="M13.1777 0H14.3997L15.1513 1.23195L15.9022 0H17.1247V3.50614H15.9576V1.7683L15.1513 3.01493H15.1312L14.3244 1.7683V3.50614H13.1777V0Z" fill="black"/>
<path d="M17.707 0H18.8793V2.34721H20.5273V3.50614H17.707V0Z" fill="black"/>
<path d="M12.9902 13.6205V15.9265H15.8298L15.5622 18.9172L12.9902 19.6114V22.0105L17.7177 20.7003L17.7523 20.3107L18.2942 14.2397L18.3505 13.6205H17.7291H12.9902Z" fill="white"/>
<path d="M12.9902 8.953V10.3852V11.2534V11.259H18.5529H18.5603L18.6066 10.7407L18.7117 9.57167L18.7668 8.953H12.9902Z" fill="white"/>
</svg>
