<svg width="23" height="26" viewBox="0 0 23 26" fill="none" xmlns="http://www.w3.org/2000/svg">
<path d="M0 1.625V24.375H23V1.625H0ZM12.5165 19.368C12.5165 21.582 11.2022 22.5926 9.28728 22.5926C7.55714 22.5926 6.55603 21.709 6.04263 20.6375L7.80357 19.5863C8.14241 20.1805 8.45045 20.6832 9.19487 20.6832C9.90335 20.6832 10.3551 20.409 10.3551 19.3375V12.0707H12.5165V19.368ZM17.6299 22.5926C15.6225 22.5926 14.3237 21.648 13.6922 20.409L15.4531 19.4035C15.9152 20.15 16.521 20.7035 17.5837 20.7035C18.477 20.7035 19.052 20.2617 19.052 19.6473C19.052 18.916 18.4667 18.657 17.4759 18.2254L16.9368 17.9969C15.3761 17.3418 14.3442 16.5141 14.3442 14.7723C14.3442 13.1676 15.5815 11.9488 17.5067 11.9488C18.8826 11.9488 19.8683 12.4211 20.5768 13.6602L18.8929 14.7266C18.5232 14.0715 18.1228 13.8125 17.5016 13.8125C16.8701 13.8125 16.4696 14.2086 16.4696 14.7266C16.4696 15.3664 16.8701 15.6254 17.7993 16.0266L18.3384 16.2551C20.1763 17.032 21.2083 17.8293 21.2083 19.6168C21.2083 21.5363 19.6783 22.5926 17.6299 22.5926Z" fill="black"/>
</svg>
