<svg width="26" height="23" viewBox="0 0 26 23" fill="none" xmlns="http://www.w3.org/2000/svg">
<g clip-path="url(#clip0)">
<path d="M24.6029 11.4434C24.6029 9.84529 22.5918 8.33076 19.5085 7.39155C20.22 4.26414 19.9038 1.77599 18.5104 0.979383C18.1892 0.792525 17.8137 0.704014 17.4035 0.704014V1.80057C17.6308 1.80057 17.8137 1.84483 17.9668 1.92842C18.6388 2.31197 18.9304 3.77241 18.7031 5.65082C18.6487 6.11305 18.5598 6.59986 18.4511 7.09651C17.4826 6.86048 16.4252 6.67854 15.3134 6.56052C14.6463 5.65082 13.9546 4.82472 13.2579 4.10187C14.8687 2.61193 16.3807 1.79566 17.4085 1.79566V0.699097C16.0497 0.699097 14.2708 1.66289 12.4722 3.33477C10.6736 1.67272 8.89479 0.718766 7.53596 0.718766V1.81532C8.55879 1.81532 10.0757 2.62668 11.6866 4.10679C10.9948 4.82963 10.303 5.65082 9.64585 6.56052C8.52914 6.67854 7.47172 6.86048 6.50325 7.10143C6.3896 6.6097 6.3056 6.13272 6.2463 5.67541C6.01407 3.797 6.30066 2.33656 6.96772 1.94809C7.11595 1.85958 7.30866 1.82024 7.53596 1.82024V0.723683C7.1209 0.723683 6.74536 0.812195 6.41924 0.999052C5.03077 1.79566 4.71947 4.27889 5.43595 7.39647C2.36252 8.34059 0.361328 9.8502 0.361328 11.4434C0.361328 13.0415 2.3724 14.5561 5.45571 15.4953C4.74418 18.6227 5.06041 21.1108 6.45383 21.9074C6.77501 22.0943 7.15054 22.1828 7.5656 22.1828C8.92444 22.1828 10.7033 21.219 12.5019 19.5471C14.3005 21.2092 16.0793 22.1631 17.4381 22.1631C17.8532 22.1631 18.2287 22.0746 18.5548 21.8878C19.9433 21.0912 20.2546 18.6079 19.5381 15.4904C22.6017 14.5511 24.6029 13.0366 24.6029 11.4434ZM18.1694 8.16357C17.9866 8.7979 17.7593 9.4519 17.5024 10.1059C17.2998 9.71252 17.0873 9.31913 16.8551 8.92575C16.6278 8.53236 16.3857 8.14881 16.1435 7.7751C16.8452 7.87836 17.5221 8.00621 18.1694 8.16357ZM15.9064 13.4005C15.5209 14.0643 15.1256 14.6937 14.7155 15.2789C13.9793 15.3428 13.2332 15.3773 12.4821 15.3773C11.736 15.3773 10.9899 15.3428 10.2586 15.2838C9.84844 14.6987 9.4482 14.0742 9.06279 13.4152C8.68726 12.7711 8.34631 12.1171 8.03502 11.4582C8.34137 10.7992 8.68726 10.1403 9.05785 9.49616C9.44326 8.83232 9.83856 8.20291 10.2487 7.61775C10.9849 7.55382 11.731 7.5194 12.4821 7.5194C13.2282 7.5194 13.9743 7.55382 14.7056 7.61283C15.1158 8.19799 15.516 8.82249 15.9014 9.48141C16.2769 10.1256 16.6179 10.7796 16.9292 11.4385C16.6179 12.0974 16.2769 12.7563 15.9064 13.4005ZM17.5024 12.7612C17.7692 13.4202 17.9965 14.0791 18.1843 14.7183C17.537 14.8757 16.8551 15.0085 16.1485 15.1117C16.3906 14.7331 16.6327 14.3446 16.86 13.9463C17.0873 13.5529 17.2998 13.1546 17.5024 12.7612ZM12.492 18.008C12.0325 17.536 11.5729 17.0098 11.1183 16.4345C11.563 16.4541 12.0176 16.4689 12.4772 16.4689C12.9416 16.4689 13.4012 16.4591 13.8508 16.4345C13.4061 17.0098 12.9466 17.536 12.492 18.008ZM8.81573 15.1117C8.11408 15.0085 7.43713 14.8806 6.78983 14.7233C6.97266 14.0889 7.19995 13.4349 7.4569 12.7809C7.65949 13.1743 7.87196 13.5677 8.1042 13.9611C8.33643 14.3545 8.57361 14.738 8.81573 15.1117ZM12.4673 4.87881C12.9268 5.35087 13.3863 5.87702 13.8409 6.45234C13.3962 6.43268 12.9416 6.41792 12.4821 6.41792C12.0176 6.41792 11.5581 6.42776 11.1084 6.45234C11.5532 5.87702 12.0127 5.35087 12.4673 4.87881ZM8.81079 7.7751C8.56867 8.15373 8.32655 8.5422 8.09925 8.9405C7.87196 9.33389 7.65949 9.72727 7.4569 10.1207C7.19007 9.46174 6.96278 8.80282 6.77501 8.16357C7.42231 8.01113 8.1042 7.87836 8.81079 7.7751ZM4.339 13.9316C2.58981 13.1891 1.45828 12.2154 1.45828 11.4434C1.45828 10.6714 2.58981 9.69285 4.339 8.95525C4.76394 8.77331 5.22841 8.61104 5.70771 8.45861C5.98936 9.4224 6.35995 10.4255 6.81948 11.4532C6.36489 12.476 5.99924 13.4743 5.72254 14.4331C5.23336 14.2807 4.76888 14.1135 4.339 13.9316ZM6.99737 20.9584C6.32536 20.5748 6.03383 19.1144 6.26113 17.236C6.31548 16.7738 6.40442 16.287 6.51313 15.7903C7.4816 16.0263 8.53902 16.2083 9.65079 16.3263C10.3179 17.236 11.0096 18.0621 11.7063 18.7849C10.0955 20.2749 8.58349 21.0912 7.55572 21.0912C7.33337 21.0862 7.1456 21.042 6.99737 20.9584ZM18.7179 17.2114C18.9501 19.0898 18.6635 20.5503 17.9965 20.9387C17.8482 21.0272 17.6555 21.0666 17.4282 21.0666C16.4054 21.0666 14.8885 20.2552 13.2776 18.7751C13.9694 18.0523 14.6612 17.2311 15.3184 16.3214C16.4351 16.2034 17.4925 16.0214 18.461 15.7805C18.5746 16.2771 18.6635 16.7541 18.7179 17.2114ZM20.6203 13.9316C20.1953 14.1135 19.7309 14.2758 19.2516 14.4282C18.9699 13.4644 18.5993 12.4613 18.1398 11.4336C18.5944 10.4108 18.96 9.41256 19.2367 8.45369C19.7259 8.60612 20.1904 8.77331 20.6252 8.95525C22.3744 9.69777 23.5059 10.6714 23.5059 11.4434C23.501 12.2154 22.3695 13.194 20.6203 13.9316Z" fill="black"/>
<path d="M12.4769 13.6907C13.724 13.6907 14.735 12.6846 14.735 11.4435C14.735 10.2024 13.724 9.19629 12.4769 9.19629C11.2297 9.19629 10.2188 10.2024 10.2188 11.4435C10.2188 12.6846 11.2297 13.6907 12.4769 13.6907Z" fill="black"/>
</g>
<defs>
<clipPath id="clip0">
<rect width="26" height="23" fill="white"/>
</clipPath>
</defs>
</svg>
