<svg width="29" height="29" viewBox="0 0 29 29" fill="none" xmlns="http://www.w3.org/2000/svg">
<path d="M19.0248 18.966C19.8658 18.879 20.5038 18.154 20.4748 17.284C20.4458 16.414 19.7208 15.718 18.8508 15.718H18.7928C17.8938 15.747 17.1978 16.501 17.2268 17.4C17.2558 17.835 17.4298 18.212 17.6908 18.473C16.7048 20.416 15.1968 21.837 12.9348 23.026C11.3978 23.838 9.80277 24.128 8.20777 23.925C6.90277 23.751 5.88777 23.171 5.24977 22.214C4.32177 20.793 4.23477 19.256 5.01777 17.719C5.56877 16.617 6.43877 15.805 6.98977 15.399C6.87377 15.022 6.69977 14.384 6.61277 13.92C2.40777 16.965 2.84277 21.083 4.11877 23.026C5.07577 24.476 7.01877 25.375 9.16477 25.375C9.74477 25.375 10.3248 25.317 10.9048 25.172C14.6168 24.447 17.4298 22.243 19.0248 18.966Z" fill="black"/>
<path d="M24.1289 15.37C21.9249 12.789 18.677 11.368 14.965 11.368H14.501C14.24 10.846 13.689 10.498 13.08 10.498H13.022C12.123 10.527 11.427 11.281 11.456 12.18C11.485 13.05 12.21 13.746 13.08 13.746H13.138C13.776 13.717 14.327 13.311 14.559 12.76H15.081C17.285 12.76 19.373 13.398 21.258 14.645C22.708 15.602 23.752 16.849 24.332 18.357C24.825 19.575 24.7959 20.764 24.2739 21.779C23.4619 23.316 22.099 24.157 20.301 24.157C19.141 24.157 18.039 23.809 17.459 23.548C17.14 23.838 16.56 24.302 16.154 24.592C17.401 25.172 18.677 25.491 19.895 25.491C22.679 25.491 24.738 23.954 25.521 22.417C26.3619 20.735 26.3039 17.835 24.1289 15.37Z" fill="black"/>
<path d="M9.39744 19.4591C9.42644 20.3291 10.1514 21.0251 11.0214 21.0251H11.0794C11.9784 20.9961 12.6744 20.2421 12.6454 19.3431C12.6164 18.4731 11.8914 17.7771 11.0214 17.7771H10.9634C10.9054 17.7771 10.8184 17.7771 10.7604 17.8061C9.57144 15.8341 9.07844 13.6881 9.25244 11.3681C9.36844 9.62806 9.94844 8.12006 10.9634 6.87306C11.8044 5.80006 13.4284 5.27806 14.5304 5.24906C17.6044 5.19106 18.9094 9.01906 18.9964 10.5561C19.3734 10.6431 20.0114 10.8461 20.4464 10.9911C20.0984 6.29306 17.1984 3.85706 14.4144 3.85706C11.8044 3.85706 9.39744 5.74206 8.44044 8.52606C7.10644 12.2381 7.97644 15.8051 9.60044 18.6181C9.45544 18.8211 9.36844 19.1401 9.39744 19.4591Z" fill="black"/>
</svg>
